<?xml version="1.0" standalone="no"?>
<!DOCTYPE svg PUBLIC "-//W3C//DTD SVG 20010904//EN"
 "http://www.w3.org/TR/2001/REC-SVG-20010904/DTD/svg10.dtd">
<svg version="1.0" xmlns="http://www.w3.org/2000/svg"
 width="460.000000pt" height="460.000000pt" viewBox="0 0 460.000000 460.000000"
 preserveAspectRatio="xMidYMid meet">
<metadata>
Created by potrace 1.14, written by Peter Selinger 2001-2017
</metadata>
<g transform="translate(0.000000,460.000000) scale(0.100000,-0.100000)"
fill="#000000" stroke="none">
<path d="M0 3288 l0 -1311 98 6 c53 4 125 7 160 7 l62 0 0 45 c0 131 59 290
153 411 29 38 68 96 87 129 18 33 60 99 92 147 l59 88 29 -22 30 -21 -22 -36
c-12 -20 -65 -97 -119 -171 -95 -134 -139 -207 -139 -232 0 -10 3 -9 9 1 7 12
13 12 24 3 7 -7 17 -9 20 -5 15 15 5 -10 -19 -49 -21 -33 -24 -45 -16 -63 7
-14 7 -26 1 -32 -5 -5 -4 -16 5 -28 13 -18 15 -17 25 20 9 32 25 51 87 100
217 171 239 191 244 221 4 22 13 32 40 41 19 7 44 12 56 12 37 1 34 13 -14 50
-41 32 -44 36 -25 39 12 2 35 -6 51 -18 16 -12 48 -24 70 -27 26 -4 42 -11 42
-19 0 -8 4 -14 9 -14 22 0 20 -34 -4 -62 -26 -31 -32 -48 -15 -48 6 0 10 9 10
19 0 11 4 22 8 25 11 7 13 -46 2 -64 -8 -13 -11 -12 -23 4 -13 18 -15 18 -40
2 -14 -10 -28 -17 -31 -17 -31 5 -59 -11 -152 -84 -106 -82 -141 -103 -113
-67 13 15 12 16 -3 3 -10 -7 -15 -17 -13 -21 3 -5 -19 -28 -49 -52 -39 -30
-55 -50 -55 -67 -1 -14 -8 -32 -17 -42 -11 -12 -14 -27 -9 -48 11 -51 21 -54
171 -44 75 4 138 5 141 0 2 -4 8 -5 13 -2 5 3 19 1 32 -4 15 -5 30 -6 39 0 10
6 5 9 -18 9 -21 0 -33 5 -33 13 0 20 33 47 58 47 19 0 28 11 20 23 -2 2 3 12
11 21 25 30 31 1 11 -54 -24 -65 -24 -70 -6 -70 8 0 19 14 25 30 13 40 32 40
21 0 -7 -24 -5 -32 9 -42 27 -19 43 -57 37 -84 -5 -19 -15 -24 -56 -30 l-50
-7 0 -106 c0 -141 -3 -147 -52 -155 -70 -11 -96 -33 -159 -128 -32 -49 -59
-94 -59 -99 0 -5 -7 -9 -15 -9 -8 0 -15 -7 -15 -15 0 -9 -6 -12 -15 -9 -40 16
12 -153 63 -203 39 -39 57 -39 85 0 l21 27 -27 54 c-15 29 -27 63 -27 75 0 27
66 118 111 152 19 15 57 38 84 53 122 65 130 74 141 166 3 30 12 86 20 123 8
38 14 85 15 105 l1 37 8 -40 c5 -23 24 -89 44 -147 40 -122 44 -150 26 -234
-12 -60 -11 -63 31 -185 23 -68 50 -143 61 -167 10 -24 18 -47 18 -51 0 -4
-18 -14 -40 -21 -22 -7 -38 -15 -36 -18 3 -2 19 0 35 6 30 10 31 10 31 -16 0
-23 8 -30 53 -49 33 -15 61 -20 76 -16 17 4 22 3 17 -5 -11 -18 -67 -14 -88 5
-17 15 -18 15 -18 0 0 -10 -4 -17 -10 -17 -5 0 -10 -4 -10 -8 0 -25 236 -52
313 -35 46 10 52 24 14 34 -40 11 -62 30 -45 40 20 12 -37 22 -60 10 -17 -9
-21 -7 -26 13 -4 15 -19 28 -45 38 -21 9 -44 25 -50 37 -10 18 -9 21 10 21 19
0 17 5 -19 48 -74 89 -102 242 -90 487 3 65 -21 277 -33 289 -15 16 -11 23 18
31 15 3 42 20 61 36 22 20 38 27 45 21 7 -5 56 -10 109 -10 54 0 102 -3 107
-7 15 -9 39 34 51 93 14 62 6 94 -45 172 -45 69 -44 81 0 36 19 -20 35 -38 35
-41 0 -11 51 -115 59 -120 6 -3 14 3 20 12 9 16 10 16 11 1 0 -20 20 -35 20
-15 0 8 -11 31 -25 51 -13 20 -22 36 -20 36 5 0 46 -33 71 -58 24 -23 17 23
-12 84 -14 30 -24 60 -22 66 9 27 45 -52 79 -176 34 -123 38 -131 60 -129 24
1 136 10 234 18 27 2 51 9 53 15 5 15 29 12 36 -6 3 -8 10 -13 15 -9 6 3 8 12
5 19 -3 8 -1 17 5 21 6 3 9 0 5 -8 -7 -20 23 -29 49 -15 19 10 20 9 9 -4 -18
-23 6 -29 99 -27 42 1 81 -1 87 -5 5 -3 12 3 15 14 3 11 11 20 19 19 10 0 10
-2 1 -6 -18 -7 -16 -23 2 -23 8 0 15 5 15 10 0 6 5 10 11 10 5 0 8 -4 4 -9 -3
-5 0 -13 6 -16 18 -12 22 3 7 24 -8 12 -18 18 -21 14 -7 -6 -11 43 -7 82 2 30
48 94 75 107 13 6 21 16 18 24 -3 9 2 11 16 7 12 -3 21 -1 21 5 0 5 -10 12
-22 16 -19 5 -20 8 -8 16 11 7 19 4 32 -12 9 -13 15 -26 12 -29 -9 -15 9 -40
24 -34 8 3 25 -4 38 -16 26 -24 22 -27 108 74 26 32 51 56 53 53 3 -3 -15 -38
-41 -78 -25 -41 -53 -98 -62 -128 -9 -30 -19 -64 -23 -75 -16 -41 -5 -45 91
-38 72 5 92 3 99 -8 6 -9 9 -10 9 -2 0 7 -8 17 -17 23 -16 10 -16 10 2 8 11
-2 26 -12 33 -23 l12 -20 -2 20 c-2 11 -10 27 -18 35 -30 28 -10 66 55 109 41
27 62 36 67 28 16 -26 30 13 31 87 2 74 3 76 19 55 10 -11 23 -40 29 -62 6
-23 17 -49 25 -58 12 -14 12 -18 -6 -34 -21 -19 -17 -40 6 -31 19 7 18 -1 -6
-31 -11 -14 -20 -22 -20 -18 0 5 -11 -2 -25 -15 -14 -13 -25 -31 -25 -39 1
-12 5 -11 19 6 23 28 31 21 24 -22 -3 -18 0 -35 5 -39 13 -8 5 -35 -17 -56
-20 -19 -71 -42 -71 -32 0 11 -58 14 -64 3 -4 -5 -1 -20 5 -33 9 -21 5 -32
-30 -85 -25 -37 -41 -72 -41 -89 1 -29 1 -29 21 10 26 48 85 129 74 101 -31
-85 -43 -125 -34 -125 5 0 9 -15 9 -32 l1 -33 14 33 c10 22 12 40 6 51 -7 12
-4 24 10 41 l19 25 0 -25 c0 -14 7 -57 15 -95 8 -39 12 -86 9 -105 -4 -30 -3
-32 7 -16 8 14 10 52 5 133 -4 73 -3 113 4 113 5 0 10 -7 10 -15 0 -20 70 -89
112 -111 20 -11 57 -17 99 -18 53 0 76 5 125 29 32 17 61 31 65 33 3 1 11 -10
19 -25 l13 -28 9 28 c7 18 7 32 1 38 -6 6 16 36 61 82 39 40 89 104 112 142
l41 70 85 -3 c96 -4 101 -2 116 71 l10 48 -62 49 c-33 27 -66 49 -71 50 -6 0
-12 -14 -13 -31 -1 -18 -5 -36 -8 -40 -8 -14 -24 -10 -24 6 0 8 5 15 11 15 6
0 9 7 5 15 -3 8 -2 15 2 15 4 0 8 10 8 23 1 12 6 45 13 72 71 314 62 583 -30
839 -22 59 -26 82 -18 95 10 15 10 14 5 -1 -3 -9 13 -65 35 -124 42 -111 62
-199 74 -321 l7 -72 68 -50 c82 -60 141 -132 169 -206 12 -31 21 -59 21 -63 0
-5 21 -23 46 -40 75 -54 107 -162 58 -202 -19 -17 -30 -5 -14 15 18 22 6 78
-26 120 -33 43 -41 40 -18 -8 22 -45 13 -81 -31 -120 -30 -26 -33 -33 -23 -51
10 -20 10 -20 -7 -6 -14 11 -19 12 -22 2 -3 -6 -9 -10 -13 -7 -12 7 -33 -32
-25 -46 5 -7 11 -6 21 2 7 6 21 8 30 5 15 -6 15 -9 -5 -29 -11 -13 -21 -26
-21 -30 0 -6 -35 -86 -48 -111 -3 -5 11 -6 33 -2 25 5 35 4 30 -3 -3 -7 0 -8
9 -5 10 4 16 1 16 -7 1 -9 6 -6 13 6 13 22 20 23 189 27 l118 3 0 33 c0 26 -5
35 -27 44 l-28 12 28 4 27 3 0 1300 0 1299 -330 0 -330 0 0 -327 c-1 -390 -9
-919 -15 -949 -5 -25 -65 -57 -89 -48 -22 9 -20 -9 4 -31 160 -145 172 -581
25 -960 -60 -156 -69 -207 -34 -198 20 6 20 5 -3 -43 -13 -27 -27 -54 -33 -60
-5 -7 -25 -32 -44 -55 -87 -111 -250 -217 -311 -204 -30 7 -63 59 -64 103 -1
23 -23 45 -37 36 -4 -2 -10 0 -13 5 -3 4 16 17 42 26 32 13 68 40 115 88 66
68 76 88 58 117 -14 20 -3 32 19 20 22 -12 41 7 20 20 -15 9 -4 30 16 30 8 0
14 5 14 10 0 31 -102 -22 -136 -71 -15 -22 -28 -38 -30 -36 -2 2 -8 42 -13 89
-6 48 -19 106 -31 130 -12 25 -16 44 -10 46 5 2 10 12 10 23 0 10 4 19 9 19 5
0 11 9 14 20 6 23 37 17 37 -7 0 -11 3 -13 13 -5 9 8 12 -1 10 -40 -2 -47 -1
-49 12 -32 8 10 15 25 15 32 0 25 26 9 68 -44 24 -30 49 -54 56 -54 13 0 66
125 66 154 0 8 -25 31 -55 51 -30 21 -52 42 -49 47 4 5 18 -1 33 -15 37 -35
76 -58 84 -50 17 16 3 43 -43 82 -67 57 -67 85 1 31 28 -22 54 -40 59 -40 7 0
18 49 26 120 2 14 6 42 10 64 5 28 3 40 -7 47 -12 8 -12 10 0 18 11 7 10 11
-5 20 -18 10 -18 10 4 11 12 0 22 6 23 13 16 181 -19 418 -61 409 -8 -2 -11 4
-7 18 3 11 1 23 -4 26 -6 3 -7 13 -4 23 7 24 -71 73 -105 66 -17 -4 -42 3 -73
20 -38 19 -52 23 -68 15 -14 -8 -19 -7 -20 2 0 7 -6 -3 -11 -22 l-11 -35 -11
38 c-13 43 -26 39 -26 -8 0 -33 -20 -48 -75 -57 -13 -2 -22 -13 -25 -33 l-5
-30 -14 33 c-17 40 -25 40 -41 2 -16 -40 -24 -38 -40 10 -13 40 -42 55 -53 28
-3 -7 -6 -3 -6 10 -1 21 -26 32 -33 13 -1 -4 -25 -11 -52 -13 -27 -3 -43 -2
-36 2 9 6 7 11 -8 19 -28 15 -32 14 -32 -9 0 -18 -7 -20 -62 -20 -71 0 -103
-13 -78 -30 13 -9 12 -12 -5 -23 -11 -6 -29 -15 -40 -19 -15 -6 -13 -7 8 -4
26 3 27 1 26 -38 -1 -22 -4 -31 -6 -20 -3 18 -14 22 -66 28 -40 4 -68 13 -80
25 -18 18 -18 19 8 25 32 8 31 39 -3 44 -12 2 -22 8 -22 13 0 5 -11 9 -25 9
-14 0 -25 4 -25 9 0 13 -69 51 -75 41 -3 -4 -8 -36 -11 -69 -4 -34 -11 -61
-15 -61 -5 0 -9 -9 -9 -20 0 -11 5 -20 10 -20 18 0 11 -35 -10 -50 -11 -8 -20
-22 -20 -32 0 -26 -18 -22 -22 5 -5 35 -23 20 -22 -18 2 -43 -7 -44 -26 -2
-12 26 -20 32 -42 30 -19 -1 -28 3 -28 13 0 19 -10 18 -26 -3 -12 -17 -14 -17
-33 4 -12 13 -28 19 -39 16 -21 -5 -39 28 -44 82 -2 19 -8 29 -17 27 -14 -3
-51 25 -51 40 0 4 7 8 15 8 22 0 18 20 -7 47 -19 20 -20 26 -8 33 8 5 11 12 7
16 -4 4 -13 2 -19 -4 -19 -19 -52 -14 -73 11 l-20 22 -3 -22 c-3 -19 -10 -23
-43 -23 -32 0 -39 -3 -39 -20 0 -11 -4 -20 -8 -20 -15 0 -32 24 -32 46 0 13
-5 26 -10 29 -6 3 -10 14 -10 25 0 10 -12 23 -27 30 -53 22 -73 35 -73 47 0 7
5 13 11 13 7 0 0 11 -15 25 -29 27 -32 40 -13 52 8 4 17 30 20 56 4 26 3 46
-2 43 -14 -9 1 47 17 63 12 13 12 16 -2 26 -18 13 -22 35 -6 35 5 0 24 9 42
20 l33 20 -34 -6 c-31 -6 -34 -5 -27 12 5 14 -1 26 -26 47 -27 22 -29 27 -13
26 31 -3 76 12 72 25 -2 6 -22 10 -44 10 -46 -2 -74 25 -48 46 8 7 15 25 15
41 0 19 5 29 14 29 8 0 16 10 18 23 5 33 50 31 59 -3 6 -23 7 -22 8 8 1 31 0
32 -39 32 -35 0 -40 -3 -40 -22 -1 -21 -2 -21 -11 -5 -8 13 -6 21 6 33 21 21
165 10 165 -13 0 -8 5 -11 10 -8 6 3 10 15 10 26 0 28 60 27 67 -1 6 -23 41
-27 49 -6 3 8 13 14 22 14 9 0 35 2 57 4 22 3 32 3 23 1 -10 -2 -18 -7 -18 -9
0 -12 26 -30 37 -27 7 3 15 -7 19 -21 3 -14 13 -26 21 -26 12 0 14 10 11 45
-2 25 0 45 4 45 5 0 8 -11 8 -25 0 -22 4 -25 40 -25 29 0 40 4 40 15 0 11 12
15 50 15 46 0 67 12 37 23 -6 2 -9 7 -6 11 3 3 20 1 38 -5 24 -8 39 -8 61 1
16 7 36 10 45 6 8 -3 15 -1 15 4 0 6 13 10 29 10 31 0 49 14 31 25 -18 11 -11
28 10 22 13 -3 24 3 35 19 11 17 20 22 30 17 8 -5 69 -5 136 -1 83 6 125 5
129 -2 8 -14 37 -3 44 17 3 8 -1 21 -9 29 -16 17 -20 44 -6 44 5 0 14 -7 21
-15 7 -9 19 -14 26 -11 7 2 19 -3 27 -12 13 -15 14 -21 2 -50 -8 -18 -23 -36
-34 -40 -19 -7 -19 -8 -1 -30 20 -25 46 -21 55 9 4 10 13 19 21 19 8 0 14 5
14 11 0 6 7 9 15 5 18 -7 45 3 45 16 0 6 -13 8 -30 6 -26 -4 -30 -1 -30 19 0
20 3 22 19 13 11 -5 29 -10 40 -10 12 0 21 -3 21 -8 0 -16 41 -33 55 -22 7 6
19 8 27 5 35 -14 75 68 44 90 -20 15 -21 35 -1 35 8 0 15 -9 15 -20 0 -11 4
-20 9 -20 12 0 29 -47 34 -90 4 -33 4 -32 5 8 1 23 6 42 10 42 4 0 16 23 26
50 17 48 19 50 57 50 28 0 39 4 39 15 0 11 11 15 39 15 38 0 38 0 49 53 11 54
8 72 -8 47 -7 -10 -10 -11 -10 -2 0 9 -366 12 -1795 12 l-1795 0 0 -1312z
m3567 1271 c2 -8 -1 -21 -7 -29 -8 -13 -11 -12 -24 5 -10 14 -11 24 -4 33 13
15 32 11 35 -9z m-187 -109 c0 -5 -4 -10 -10 -10 -5 0 -10 5 -10 10 0 6 5 10
10 10 6 0 10 -4 10 -10z m-335 -10 c-3 -5 -14 -10 -23 -9 -14 0 -13 2 3 9 27
11 27 11 20 0z m-145 -10 c0 -5 -4 -10 -10 -10 -5 0 -10 5 -10 10 0 6 5 10 10
10 6 0 10 -4 10 -10z m220 -6 c0 -14 -3 -14 -15 -4 -8 7 -15 14 -15 16 0 2 7
4 15 4 8 0 15 -7 15 -16z m-440 -44 c0 -5 -2 -10 -4 -10 -3 0 -8 5 -11 10 -3
6 -1 10 4 10 6 0 11 -4 11 -10z m120 -10 c0 -5 -5 -10 -11 -10 -5 0 -7 5 -4
10 3 6 8 10 11 10 2 0 4 -4 4 -10z m45 0 c3 -5 1 -10 -4 -10 -6 0 -11 5 -11
10 0 6 2 10 4 10 3 0 8 -4 11 -10z m-258 -36 c-3 -3 -12 -4 -19 -1 -8 3 -5 6
6 6 11 1 17 -2 13 -5z m-561 -31 c17 -17 17 -18 -10 -21 -33 -4 -41 1 -33 23
8 20 21 19 43 -2z m-46 -43 c0 -5 -4 -10 -10 -10 -5 0 -10 5 -10 10 0 6 5 10
10 10 6 0 10 -4 10 -10z m440 6 c0 -3 -4 -8 -10 -11 -5 -3 -10 -1 -10 4 0 6 5
11 10 11 6 0 10 -2 10 -4z m-580 -31 c0 -18 -30 -27 -46 -14 -10 8 -11 15 -4
24 13 16 50 8 50 -10z m-163 -56 c23 -8 23 -16 8 -91 -6 -33 -9 -36 -26 -27
-13 6 -25 6 -38 -1 -21 -11 -90 -8 -110 4 -6 4 -11 18 -11 32 0 13 -4 24 -10
24 -5 0 -10 -9 -10 -20 0 -11 -7 -23 -15 -26 -8 -4 -15 -13 -15 -22 0 -8 -2
-13 -5 -10 -3 3 -1 24 4 47 9 40 8 41 -12 35 -28 -10 -45 -10 -81 0 l-29 7 16
-25 c22 -33 21 -46 -1 -46 -22 0 -48 29 -46 50 1 8 2 28 3 44 1 21 4 26 14 19
20 -16 257 1 257 18 0 10 70 2 107 -12z m23 -157 c0 -4 -5 -13 -12 -20 -14
-14 -88 -16 -88 -2 0 6 18 10 40 10 22 0 40 5 40 10 0 6 5 10 10 10 6 0 10 -4
10 -8z m-5 -132 c3 -5 1 -10 -4 -10 -6 0 -11 5 -11 10 0 6 2 10 4 10 3 0 8 -4
11 -10z m-45 -120 c0 -5 -4 -10 -10 -10 -5 0 -10 5 -10 10 0 6 5 10 10 10 6 0
10 -4 10 -10z m1899 -456 c10 -9 -14 -24 -39 -24 -31 0 -49 26 -22 33 16 4 52
-1 61 -9z m78 0 c-3 -3 -12 -4 -19 -1 -8 3 -5 6 6 6 11 1 17 -2 13 -5z m-12
-44 c3 -5 1 -10 -4 -10 -6 0 -11 5 -11 10 0 6 2 10 4 10 3 0 8 -4 11 -10z
m302 -12 c-3 -8 -6 -5 -6 6 -1 11 2 17 5 13 3 -3 4 -12 1 -19z m-223 -38 c-5
-5 -9 4 -10 23 -1 30 -1 30 9 9 6 -14 7 -26 1 -32z m-331 25 c4 -8 2 -17 -3
-20 -6 -4 -10 -1 -10 4 0 6 -5 11 -11 11 -5 0 -7 -4 -4 -10 3 -5 1 -10 -4 -10
-14 0 -14 13 1 28 16 16 25 15 31 -3z m104 -11 c-3 -3 -12 -4 -19 -1 -8 3 -5
6 6 6 11 1 17 -2 13 -5z m-51 -28 c9 -15 21 -22 30 -19 9 3 14 -1 14 -11 0 -9
-7 -19 -15 -22 -9 -4 -13 -14 -11 -23 7 -21 -9 -46 -23 -37 -8 5 -8 0 -1 -19
12 -32 12 -35 1 -35 -12 0 -71 121 -65 132 10 16 25 7 35 -19 7 -17 13 -23 16
-15 3 7 -2 24 -11 37 -14 21 -14 24 -1 19 8 -4 15 -12 15 -19 0 -8 5 -17 10
-20 19 -11 10 31 -10 53 -12 12 -16 22 -11 22 6 0 18 -11 27 -24z m-80 -21
c-9 -9 -16 -13 -16 -8 0 12 22 34 28 28 2 -2 -3 -11 -12 -20z m-36 -15 c0 -5
-2 -10 -4 -10 -3 0 -8 5 -11 10 -3 6 -1 10 4 10 6 0 11 -4 11 -10z m-737 -30
c3 -11 1 -18 -4 -14 -5 3 -9 12 -9 20 0 20 7 17 13 -6z m97 10 c0 -5 -13 -10
-30 -10 -16 0 -30 5 -30 10 0 6 14 10 30 10 17 0 30 -4 30 -10z m504 -12 c11
-10 22 -16 25 -13 2 3 -4 12 -15 21 -18 14 -18 15 3 4 19 -9 21 -16 16 -43 -8
-46 -40 -74 -94 -81 -39 -6 -48 -4 -53 11 -4 9 -4 15 -1 11 4 -3 21 0 40 7 18
8 36 11 40 7 5 -4 5 1 2 11 -4 9 -2 17 5 17 7 0 6 5 -2 15 -7 9 -10 18 -7 22
4 3 2 12 -3 19 -17 19 21 12 44 -8z m107 -13 c5 4 5 -3 0 -17 -4 -13 -14 -23
-20 -23 -7 0 -18 -8 -26 -18 -12 -16 -13 -16 -19 -1 -9 24 2 52 25 59 10 4 20
14 20 23 1 10 3 8 6 -6 2 -12 9 -20 14 -17z m26 3 c-3 -8 -6 -5 -6 6 -1 11 2
17 5 13 3 -3 4 -12 1 -19z m-2694 -60 c-3 -21 -10 -36 -16 -35 -12 2 -29 -52
-20 -66 8 -13 -32 9 -51 29 -20 19 -20 4 -2 -41 11 -25 24 -37 48 -44 29 -8
30 -9 8 -10 -30 -1 -40 6 -64 43 -13 20 -16 39 -12 65 5 33 2 38 -30 60 -50
34 -28 53 23 20 31 -21 43 -23 65 -15 14 5 29 19 32 30 9 35 26 4 19 -36z
m507 -18 c0 -46 -17 -62 -26 -25 -6 23 -9 25 -21 13 -7 -8 -22 -36 -33 -64
-13 -33 -19 -42 -20 -26 0 15 -4 21 -11 16 -12 -7 -9 12 7 63 4 14 1 13 -15
-5 -11 -13 -26 -43 -32 -65 -7 -23 -14 -36 -16 -30 -8 23 27 109 55 136 24 23
82 39 105 29 4 -2 7 -21 7 -42z m1267 34 c-3 -3 -12 -4 -19 -1 -8 3 -5 6 6 6
11 1 17 -2 13 -5z m-1708 -38 c-3 -3 -11 5 -18 17 -13 21 -12 21 5 5 10 -10
16 -20 13 -22z m2785 18 c3 -9 12 -14 18 -12 12 4 38 -14 38 -26 0 -3 -14 0
-31 6 -25 8 -33 8 -41 -3 -7 -10 -7 -8 -3 9 4 13 2 22 -5 22 -6 0 -8 5 -5 10
9 15 22 12 29 -6z m-91 -11 c-9 -24 -35 -53 -48 -53 -5 0 -11 -21 -13 -47 -2
-35 -9 -51 -27 -67 -32 -27 -32 -36 0 -34 14 1 25 7 25 12 0 7 3 7 10 0 5 -5
11 -34 12 -63 2 -50 0 -56 -32 -82 -39 -33 -45 -34 -84 -14 -37 19 -36 20 -37
-12 0 -25 -1 -26 -9 -8 -7 19 -8 19 -18 -5 -5 -14 -11 -34 -13 -45 -3 -12 -12
-20 -24 -20 -24 0 -33 -38 -15 -60 15 -18 6 -45 -15 -45 -8 0 -15 -4 -15 -10
0 -5 -4 -10 -9 -10 -5 0 -7 9 -4 20 3 11 0 20 -6 20 -6 0 -11 -4 -11 -8 0 -5
-18 -18 -40 -30 -23 -12 -38 -17 -35 -13 3 5 -22 -4 -55 -20 -33 -16 -63 -29
-66 -29 -2 0 -28 -16 -57 -36 -40 -27 -46 -34 -24 -28 22 5 26 3 21 -10 -3 -9
-11 -13 -16 -10 -6 4 -14 1 -18 -6 -5 -8 -15 4 -29 32 -28 58 -27 86 2 92 12
2 51 9 87 16 138 24 163 37 206 103 21 33 47 72 57 86 29 43 49 122 35 138
-14 17 -15 113 -1 122 5 3 18 20 28 38 25 42 92 73 161 73 20 0 34 5 35 13 0
10 2 10 6 0 7 -18 23 -16 23 2 0 8 4 15 10 15 5 0 6 -8 3 -17z m-2465 -10 c-2
-10 -10 -17 -16 -15 -7 1 -12 -4 -12 -12 0 -8 -6 -21 -14 -29 -8 -8 -26 -31
-40 -51 -25 -37 -43 -34 -31 5 12 35 65 107 83 112 31 8 34 7 30 -10z m2672
-23 c12 -8 12 -10 -5 -10 -11 0 -27 5 -35 10 -12 8 -12 10 5 10 11 0 27 -5 35
-10z m190 -124 c8 -13 1 -10 -24 9 -20 15 -36 32 -36 37 0 12 45 -22 60 -46z
m-2766 -41 c7 -29 7 -29 -13 -11 -22 20 -26 41 -14 72 7 19 7 19 27 -61z m136
29 c0 -8 7 -17 15 -20 8 -4 15 -15 15 -25 0 -14 -7 -19 -30 -19 -33 0 -39 -16
-12 -36 16 -12 16 -14 0 -30 -11 -11 -22 -14 -35 -9 -17 8 -17 8 0 12 22 6 17
29 -6 27 -21 -2 -49 56 -35 73 7 9 16 10 28 3 15 -8 20 -4 29 21 10 30 31 32
31 3z m1875 -96 c-25 -28 -51 -61 -57 -72 -11 -21 -11 -21 11 -2 11 11 21 14
21 8 0 -7 -4 -12 -8 -12 -5 0 -15 -15 -24 -33 -20 -41 -53 -47 -43 -8 9 39 63
113 104 143 20 14 38 27 39 27 2 1 -17 -22 -43 -51z m495 -14 c0 23 52 -42 62
-78 6 -23 20 -51 30 -62 19 -21 19 -22 -9 -29 -15 -3 -31 -12 -35 -18 -13 -21
-26 4 -47 90 -23 90 -27 128 -11 103 5 -8 10 -11 10 -6z m-2426 -36 c10 -14
12 -26 6 -33 -5 -7 -6 -15 -2 -20 4 -4 -4 -4 -17 0 -19 6 -23 4 -18 -8 5 -13
2 -14 -16 -8 -25 9 -27 36 -7 69 19 28 35 28 54 0z m166 -42 c0 -3 -4 -8 -10
-11 -5 -3 -10 -1 -10 4 0 6 5 11 10 11 6 0 10 -2 10 -4z m2142 -32 c39 -12 38
-88 -2 -121 -22 -18 -29 -16 -39 10 -5 13 -16 29 -25 36 -9 7 -16 23 -16 34 0
20 -1 20 -24 -2 -14 -13 -29 -20 -35 -16 -6 3 -11 1 -11 -4 0 -6 8 -11 18 -11
9 0 25 -7 35 -14 21 -16 23 -66 2 -66 -8 0 -15 7 -15 16 0 14 -1 14 -16 0 -8
-9 -22 -16 -30 -16 -12 0 -19 -19 -15 -43 1 -5 -8 -11 -19 -14 -17 -5 -20 -11
-16 -32 5 -23 5 -24 -5 -7 -8 14 -8 24 2 42 7 13 16 24 21 24 17 0 7 39 -12
45 -16 5 -18 10 -10 25 6 10 10 30 10 43 0 18 7 27 23 31 13 3 29 17 35 30 10
23 15 24 69 20 31 -2 65 -7 75 -10z m108 -84 c0 -5 -4 -10 -10 -10 -5 0 -10 5
-10 10 0 6 5 10 10 10 6 0 10 -4 10 -10z m120 -10 c0 -5 -2 -10 -4 -10 -3 0
-8 5 -11 10 -3 6 -1 10 4 10 6 0 11 -4 11 -10z m-155 -10 c3 -6 -1 -7 -9 -4
-18 7 -21 14 -7 14 6 0 13 -4 16 -10z m45 -45 c20 -24 6 -28 -15 -5 -10 11
-13 20 -8 20 6 0 16 -7 23 -15z m-111 -19 c9 -10 8 -15 -2 -19 -8 -3 -13 3
-14 14 -2 23 1 24 16 5z m-1036 -46 c3 -14 -1 -24 -15 -31 -15 -8 -19 -8 -14
0 4 6 2 11 -4 11 -8 0 -8 6 0 20 14 26 26 25 33 0z m27 16 c0 -3 -4 -8 -10
-11 -5 -3 -10 -1 -10 4 0 6 5 11 10 11 6 0 10 -2 10 -4z m-1216 -33 c-4 -16
-14 -38 -22 -50 -16 -25 -11 -28 19 -13 29 16 23 -5 -8 -31 l-28 -22 28 7 c31
7 34 0 11 -25 -14 -16 -14 -21 5 -58 25 -48 26 -69 5 -99 -14 -21 -20 -22 -97
-16 -45 4 -84 8 -86 10 -2 2 3 12 12 22 10 10 17 23 17 29 0 5 11 20 24 32 28
26 48 100 41 149 -3 25 0 35 13 39 9 4 28 17 42 30 31 29 32 29 24 -4z m1975
-5 c-5 -18 -12 -76 -16 -128 -4 -65 -9 -87 -14 -69 -7 27 4 171 16 209 11 34
24 22 14 -12z m-469 18 c0 -11 -19 -15 -25 -6 -3 5 1 10 9 10 9 0 16 -2 16 -4z
m750 -5 c0 -13 -29 -35 -37 -28 -7 8 15 37 28 37 5 0 9 -4 9 -9z m-220 -62 c0
-45 -2 -49 -15 -35 -17 16 -21 41 -5 31 6 -4 10 7 10 24 0 17 2 31 5 31 3 0 5
-23 5 -51z m-893 27 c-3 -8 -1 -17 6 -20 7 -2 4 -5 -5 -5 -10 -1 -18 -6 -18
-13 0 -6 -3 -8 -7 -5 -3 4 0 18 7 32 14 27 26 34 17 11z m1327 -69 c9 -51 -1
-64 -30 -36 -16 15 -24 34 -24 56 0 19 4 32 9 28 5 -3 13 0 17 6 9 15 19 -4
28 -54z m-437 -84 c-3 -10 -5 -4 -5 12 0 17 2 24 5 18 2 -7 2 -21 0 -30z
m-1847 -20 c0 -7 5 -13 10 -13 6 0 10 -4 10 -10 0 -5 -7 -10 -15 -10 -18 0
-35 31 -35 62 1 22 1 22 15 4 8 -11 15 -26 15 -33z m31 -70 c13 -16 12 -17 -3
-4 -10 7 -18 15 -18 17 0 8 8 3 21 -13z m1147 -106 c3 -13 0 -14 -22 -4 -16 8
-21 14 -13 19 17 11 31 4 35 -15z m429 17 c-3 -3 -12 -4 -19 -1 -8 3 -5 6 6 6
11 1 17 -2 13 -5z m-747 -8 c0 -9 -40 -13 -46 -5 -3 5 6 9 20 9 14 0 26 -2 26
-4z m160 -6 c0 -5 -4 -10 -10 -10 -5 0 -10 5 -10 10 0 6 5 10 10 10 6 0 10 -4
10 -10z m949 -37 c8 -14 12 -15 25 -4 11 9 16 10 16 2 0 -6 -5 -11 -11 -11 -6
0 -9 -6 -6 -12 2 -7 10 -12 16 -10 16 3 14 -25 -2 -31 -8 -3 -18 7 -26 24 -10
22 -18 28 -32 24 -21 -7 -22 -5 -13 19 8 21 21 20 33 -1z m-2142 -35 c-3 -7
-5 -2 -5 12 0 14 2 19 5 13 2 -7 2 -19 0 -25z m1973 -82 c0 -3 -4 -8 -10 -11
-5 -3 -10 -1 -10 4 0 6 5 11 10 11 6 0 10 -2 10 -4z m239 -171 c0 -18 -1 -17
-14 5 -20 34 -20 60 0 34 8 -10 14 -28 14 -39z m-1918 -712 c13 -15 12 -15 -8
-4 -24 12 -29 21 -14 21 5 0 15 -7 22 -17z"/>
<path d="M1490 4144 c0 -8 5 -12 10 -9 6 4 8 11 5 16 -9 14 -15 11 -15 -7z"/>
<path d="M1597 4130 c-3 -11 -11 -20 -19 -20 -11 0 -11 2 0 9 11 6 10 10 -4
15 -25 10 -63 -29 -46 -46 9 -9 17 -10 30 -2 9 6 33 9 53 6 27 -3 38 0 42 12
5 12 0 16 -16 17 -12 0 -16 3 -9 6 15 6 6 23 -12 23 -8 0 -16 -9 -19 -20z"/>
<path d="M560 3060 c0 -5 5 -10 10 -10 6 0 10 5 10 10 0 6 -4 10 -10 10 -5 0
-10 -4 -10 -10z"/>
<path d="M3230 2827 c0 -15 44 -39 54 -30 3 4 6 15 6 25 0 13 -8 18 -30 18
-18 0 -30 -5 -30 -13z"/>
<path d="M3109 2728 c-9 -32 -13 -58 -8 -58 11 0 31 66 27 92 -2 16 -8 4 -19
-34z"/>
<path d="M3016 2553 c-6 -14 -5 -15 5 -6 7 7 10 15 7 18 -3 3 -9 -2 -12 -12z"/>
<path d="M3340 2650 c0 -5 7 -7 15 -4 8 4 15 8 15 10 0 2 -7 4 -15 4 -8 0 -15
-4 -15 -10z"/>
<path d="M3641 4578 c0 -13 4 -32 8 -43 7 -16 9 -14 14 14 10 47 9 51 -8 51
-9 0 -15 -9 -14 -22z"/>
<path d="M2720 4260 c0 -22 1 -23 24 -14 23 9 20 34 -4 34 -13 0 -20 -7 -20
-20z"/>
<path d="M1974 4183 c-1 -10 -3 -25 -5 -33 -2 -8 3 -15 11 -15 10 0 16 12 18
33 2 22 -1 32 -10 32 -8 0 -14 -8 -14 -17z"/>
<path d="M2103 4163 c-4 -10 -11 -21 -17 -25 -6 -4 -7 -10 -3 -15 5 -4 11 -3
15 3 4 6 15 13 25 17 21 8 23 37 2 37 -9 0 -19 -8 -22 -17z"/>
<path d="M1973 4113 c9 -2 25 -2 35 0 9 3 1 5 -18 5 -19 0 -27 -2 -17 -5z"/>
<path d="M2300 4111 c0 -6 5 -13 10 -16 6 -3 10 1 10 9 0 9 -4 16 -10 16 -5 0
-10 -4 -10 -9z"/>
<path d="M1760 4080 c0 -11 4 -20 9 -20 5 0 12 -10 15 -22 l6 -23 19 23 c11
12 26 22 35 22 9 0 16 8 16 20 0 25 -28 26 -46 3 -13 -17 -15 -17 -28 0 -17
22 -26 22 -26 -3z"/>
<path d="M2040 4074 c-8 -8 -25 -14 -41 -12 -15 1 -39 -4 -53 -12 -23 -12 -27
-19 -24 -54 3 -40 4 -41 41 -40 20 1 46 9 57 19 12 11 26 14 39 10 19 -6 21
-14 21 -87 0 -59 3 -79 13 -75 6 2 12 16 12 30 -1 16 5 27 12 27 8 0 13 14 13
39 0 22 7 46 15 55 8 8 15 21 15 28 0 8 5 19 12 26 9 9 8 12 -5 12 -9 0 -27
-11 -41 -25 -14 -14 -30 -25 -36 -25 -14 0 -13 27 3 33 6 2 9 8 5 12 -5 5 -19
3 -33 -3 -32 -15 -41 1 -10 18 27 14 34 40 11 40 -7 0 -19 -7 -26 -16z m-70
-74 c0 -5 -4 -10 -10 -10 -5 0 -10 5 -10 10 0 6 5 10 10 10 6 0 10 -4 10 -10z"/>
<path d="M2240 4070 c0 -19 3 -21 12 -12 9 9 9 15 0 24 -9 9 -12 7 -12 -12z"/>
<path d="M2300 4051 c-7 -15 -7 -21 0 -21 12 0 25 28 17 36 -3 3 -10 -4 -17
-15z"/>
<path d="M2480 4050 c0 -5 5 -10 11 -10 5 0 7 5 4 10 -3 6 -8 10 -11 10 -2 0
-4 -4 -4 -10z"/>
<path d="M2237 4013 c29 -45 73 -71 73 -43 0 6 -6 10 -13 10 -6 0 -18 14 -25
30 -9 18 -21 30 -33 30 -19 0 -19 -1 -2 -27z"/>
<path d="M2187 4004 c-16 -16 -7 -44 14 -44 15 0 20 5 17 22 -3 22 -19 33 -31
22z"/>
<path d="M2418 3993 c12 -2 32 -2 45 0 12 2 2 4 -23 4 -25 0 -35 -2 -22 -4z"/>
<path d="M1840 3930 c0 -19 3 -21 12 -12 9 9 9 15 0 24 -9 9 -12 7 -12 -12z"/>
<path d="M1991 3914 c0 -11 3 -14 6 -6 3 7 2 16 -1 19 -3 4 -6 -2 -5 -13z"/>
<path d="M1895 3880 c3 -5 10 -10 16 -10 5 0 9 5 9 10 0 6 -7 10 -16 10 -8 0
-12 -4 -9 -10z"/>
<path d="M2295 3870 c3 -5 10 -10 16 -10 5 0 9 5 9 10 0 6 -7 10 -16 10 -8 0
-12 -4 -9 -10z"/>
<path d="M1841 3714 c0 -11 3 -14 6 -6 3 7 2 16 -1 19 -3 4 -6 -2 -5 -13z"/>
<path d="M2080 3700 c0 -5 5 -10 11 -10 5 0 7 5 4 10 -3 6 -8 10 -11 10 -2 0
-4 -4 -4 -10z"/>
<path d="M2108 3643 c7 -3 16 -2 19 1 4 3 -2 6 -13 5 -11 0 -14 -3 -6 -6z"/>
<path d="M2088 3553 c7 -3 16 -2 19 1 4 3 -2 6 -13 5 -11 0 -14 -3 -6 -6z"/>
<path d="M2564 3525 c-3 -8 -3 -19 1 -25 11 -18 25 -11 25 15 0 27 -17 34 -26
10z"/>
<path d="M2400 3430 c0 -5 5 -10 10 -10 6 0 10 5 10 10 0 6 -4 10 -10 10 -5 0
-10 -4 -10 -10z"/>
<path d="M2455 3431 c-6 -11 25 -31 48 -31 8 0 21 8 28 17 15 18 16 18 -36 -3
-10 -4 -15 0 -15 10 0 18 -15 22 -25 7z"/>
<path d="M3085 3430 c-3 -5 1 -10 9 -10 8 0 18 5 21 10 3 6 -1 10 -9 10 -8 0
-18 -4 -21 -10z"/>
<path d="M2830 3415 c0 -8 5 -15 10 -15 6 0 10 7 10 15 0 8 -4 15 -10 15 -5 0
-10 -7 -10 -15z"/>
<path d="M2355 3410 c-3 -5 -1 -10 4 -10 6 0 11 5 11 10 0 6 -2 10 -4 10 -3 0
-8 -4 -11 -10z"/>
<path d="M3420 3410 c0 -5 5 -10 10 -10 6 0 10 5 10 10 0 6 -4 10 -10 10 -5 0
-10 -4 -10 -10z"/>
<path d="M2300 3388 c-21 -9 -22 -12 -8 -15 10 -3 25 3 34 11 18 18 10 19 -26
4z"/>
<path d="M3578 3393 c7 -3 16 -2 19 1 4 3 -2 6 -13 5 -11 0 -14 -3 -6 -6z"/>
<path d="M2865 3368 c-21 -12 -35 -28 -35 -40 0 -5 20 -8 44 -8 39 0 44 2 39
20 -8 30 -25 40 -48 28z"/>
<path d="M2466 3361 c-4 -7 -5 -15 -2 -18 9 -9 19 4 14 18 -4 11 -6 11 -12 0z"/>
<path d="M3138 3353 c12 -2 32 -2 45 0 12 2 2 4 -23 4 -25 0 -35 -2 -22 -4z"/>
<path d="M3680 3336 c0 -8 9 -20 19 -26 20 -10 72 -10 66 0 -2 3 14 7 36 7 33
2 39 -1 39 -18 0 -10 5 -19 10 -19 13 0 13 6 0 31 -8 14 -21 19 -50 19 -21 0
-42 -4 -45 -10 -10 -17 -33 -11 -31 7 0 12 -7 19 -21 21 -15 2 -23 -2 -23 -12z"/>
<path d="M3230 3330 c0 -5 5 -10 11 -10 5 0 7 5 4 10 -3 6 -8 10 -11 10 -2 0
-4 -4 -4 -10z"/>
<path d="M2408 3323 c7 -3 16 -2 19 1 4 3 -2 6 -13 5 -11 0 -14 -3 -6 -6z"/>
<path d="M3800 3289 c0 -5 5 -7 10 -4 6 3 10 8 10 11 0 2 -4 4 -10 4 -5 0 -10
-5 -10 -11z"/>
<path d="M2712 3255 c-11 -13 -9 -15 14 -15 22 0 25 2 14 15 -15 18 -12 18
-28 0z"/>
<path d="M2240 3204 c0 -8 5 -12 10 -9 6 3 10 10 10 16 0 5 -4 9 -10 9 -5 0
-10 -7 -10 -16z"/>
<path d="M4030 2660 c0 -23 158 -236 180 -243 8 -3 23 -8 33 -12 66 -27 -64
173 -159 245 -46 35 -54 36 -54 10z"/>
<path d="M880 2489 c0 -5 4 -8 9 -4 5 3 12 -4 16 -15 3 -11 11 -20 16 -20 12
0 11 7 -1 31 -11 20 -40 26 -40 8z"/>
<path d="M4001 2389 c-7 -38 -11 -72 -10 -73 2 -2 30 -22 62 -45 l57 -42 0 59
c0 77 -14 115 -55 146 -19 14 -35 26 -38 26 -2 0 -9 -32 -16 -71z"/>
<path d="M846 2399 c-26 -25 -6 -25 24 1 14 12 18 20 9 19 -8 0 -23 -9 -33
-20z"/>
<path d="M3969 2269 c-8 -5 -9 -9 -2 -9 6 0 14 -8 17 -18 3 -10 21 -26 38 -36
18 -11 43 -27 54 -38 19 -17 22 -17 27 -4 11 27 -109 121 -134 105z"/>
<path d="M4293 2225 c0 -52 1 -56 13 -40 8 10 14 28 14 40 0 12 -6 30 -14 40
-12 16 -13 12 -13 -40z"/>
<path d="M670 2260 c-8 -5 -11 -12 -8 -15 4 -4 17 0 30 9 24 17 5 23 -22 6z"/>
<path d="M670 2220 c-9 -6 -10 -10 -3 -10 6 0 15 5 18 10 8 12 4 12 -15 0z"/>
<path d="M2718 2207 c-14 -12 -31 -32 -37 -44 -14 -28 -14 -66 0 -57 6 3 9 15
6 25 -3 10 -2 19 2 21 13 7 64 68 60 72 -3 3 -17 -5 -31 -17z"/>
<path d="M625 2189 c-11 -16 -1 -19 13 -3 7 8 8 14 3 14 -5 0 -13 -5 -16 -11z"/>
<path d="M586 2154 c-5 -14 -4 -15 9 -4 17 14 19 20 6 20 -5 0 -12 -7 -15 -16z"/>
<path d="M3148 2093 c-20 -5 -22 -12 -9 -32 7 -11 10 -11 17 0 7 12 16 41 11
38 -1 -1 -10 -3 -19 -6z"/>
<path d="M3116 2025 c4 -8 8 -15 10 -15 2 0 4 7 4 15 0 8 -4 15 -10 15 -5 0
-7 -7 -4 -15z"/>
<path d="M4181 1998 c-5 -13 -16 -41 -25 -62 -16 -39 -15 -66 2 -66 8 0 62
121 62 140 0 20 -31 10 -39 -12z"/>
<path d="M4050 1982 c0 -6 -9 -9 -20 -7 -11 2 -20 0 -20 -5 0 -4 -9 -6 -21 -3
-17 5 -20 2 -17 -18 2 -15 -2 -23 -9 -21 -7 1 -13 -2 -13 -7 0 -9 57 -25 79
-22 8 2 12 -3 8 -12 -3 -7 1 -14 8 -14 8 0 11 7 7 15 -3 9 -1 13 5 9 7 -4 9 9
5 41 -4 43 -12 71 -12 44z m-3 -69 c-3 -10 -5 -4 -5 12 0 17 2 24 5 18 2 -7 2
-21 0 -30z"/>
<path d="M530 1957 c0 -24 31 -140 42 -157 6 -10 7 -6 3 15 -4 17 -12 56 -19
87 -11 56 -26 87 -26 55z"/>
<path d="M118 1943 c7 -3 16 -2 19 1 4 3 -2 6 -13 5 -11 0 -14 -3 -6 -6z"/>
<path d="M4027 1821 c-14 -28 -14 -29 4 -18 10 6 19 20 19 29 0 26 -6 22 -23
-11z"/>
<path d="M4113 1827 c-1 -20 -155 -461 -166 -475 -5 -7 -18 -10 -30 -6 -14 4
-18 2 -15 -7 5 -14 47 -14 59 -1 3 4 22 48 42 97 63 158 147 375 147 380 0 2
-8 9 -18 14 -13 7 -19 6 -19 -2z"/>
<path d="M4295 1810 c-3 -6 1 -7 9 -4 18 7 21 14 7 14 -6 0 -13 -4 -16 -10z"/>
<path d="M4169 1799 c-9 -6 -2 -9 24 -9 20 0 37 3 37 8 0 10 -45 11 -61 1z"/>
<path d="M4383 1803 c9 -2 25 -2 35 0 9 3 1 5 -18 5 -19 0 -27 -2 -17 -5z"/>
<path d="M360 1791 c0 -5 5 -13 10 -16 6 -3 10 -2 10 4 0 5 -4 13 -10 16 -5 3
-10 2 -10 -4z"/>
<path d="M4338 1793 c7 -3 16 -2 19 1 4 3 -2 6 -13 5 -11 0 -14 -3 -6 -6z"/>
<path d="M3080 1521 c0 -6 -20 -31 -45 -58 -24 -26 -45 -52 -45 -58 0 -5 25
16 55 48 53 55 66 77 45 77 -5 0 -10 -4 -10 -9z"/>
<path d="M2077 1462 c-15 -15 -27 -35 -27 -43 0 -7 14 -43 31 -79 30 -63 30
-65 13 -101 -17 -40 -14 -71 10 -104 15 -19 15 -19 16 8 l0 28 40 -33 c22 -18
42 -41 46 -51 3 -9 19 -24 35 -32 16 -9 29 -23 29 -31 0 -10 6 -14 14 -11 10
4 13 1 10 -8 -8 -19 67 -67 108 -68 32 -2 42 9 71 78 3 6 10 5 18 -2 18 -17
34 -16 20 1 -7 9 -8 22 -3 37 9 25 6 45 -11 66 -9 13 -30 -1 -75 -49 -17 -18
-58 -26 -47 -9 3 5 -3 12 -12 15 -10 3 -24 15 -30 25 -10 16 -10 23 2 35 20
19 19 30 -2 22 -9 -4 -20 -1 -24 6 -6 9 -11 2 -15 -20 -6 -31 -8 -32 -43 -26
-20 3 -48 10 -63 16 -27 10 -28 14 -28 77 0 61 -21 218 -35 262 -8 26 -17 24
-48 -9z m413 -403 c0 -6 -4 -7 -10 -4 -5 3 -10 11 -10 16 0 6 5 7 10 4 6 -3
10 -11 10 -16z"/>
<path d="M2190 1400 c0 -15 7 -20 27 -20 25 0 26 0 8 20 -10 11 -22 20 -27 20
-4 0 -8 -9 -8 -20z"/>
<path d="M3090 1370 c0 -14 -7 -34 -15 -44 -17 -22 -20 -40 -6 -31 15 9 -9
-67 -30 -97 -11 -14 -32 -29 -48 -33 -39 -8 -55 -29 -47 -60 8 -31 16 -29 120
21 38 19 75 34 83 34 18 0 17 54 -2 90 -9 17 -22 30 -30 30 -18 0 -19 9 -5 46
6 16 7 30 2 33 -5 3 -12 13 -15 21 -3 9 -6 6 -7 -10z"/>
<path d="M2912 1341 c-24 -13 -29 -20 -21 -28 9 -9 3 -13 -25 -18 -20 -4 -34
-11 -31 -15 5 -9 -44 -24 -52 -16 -3 2 -2 14 2 26 5 15 12 19 28 15 22 -5 22
-5 0 6 -20 10 -26 9 -43 -14 -20 -25 -21 -25 -52 -10 -29 15 -32 15 -45 -2
-17 -25 -17 -29 7 -50 16 -15 149 -65 171 -65 14 0 49 68 49 94 0 14 9 34 21
44 23 19 44 53 32 51 -4 -1 -23 -9 -41 -18z"/>
<path d="M2453 1335 c-3 -9 -3 -18 0 -22 10 -10 37 6 37 22 0 20 -29 20 -37 0z"/>
<path d="M3207 1343 c-4 -3 -7 -12 -7 -18 0 -10 138 -69 360 -152 59 -23 76
-33 78 -51 3 -22 -103 -391 -116 -404 -4 -4 -29 1 -57 11 -61 22 -296 135
-347 167 -20 13 -55 27 -77 30 -37 6 -41 4 -41 -14 0 -11 7 -23 15 -26 13 -5
14 -10 4 -27 -6 -12 -9 -32 -6 -46 4 -22 -2 -28 -50 -49 -30 -14 -78 -29 -107
-35 -62 -13 -96 -33 -96 -58 0 -32 38 -43 105 -31 140 24 298 33 380 20 44 -7
114 -16 155 -21 41 -5 89 -11 106 -15 19 -3 34 -1 38 5 4 6 37 11 76 11 l69 0
7 -35 c4 -22 2 -41 -6 -50 -10 -12 -4 -18 34 -36 50 -23 59 -23 269 2 59 7
107 16 107 20 0 11 -50 19 -135 22 -69 2 -70 3 -73 30 -5 40 28 136 50 148 15
8 16 14 8 30 -6 11 -23 24 -37 30 -20 7 -28 6 -39 -8 -13 -17 -15 -16 -39 10
-24 26 -24 29 -9 52 9 14 20 25 25 25 15 0 39 58 32 77 -10 28 -55 73 -74 73
-26 0 -49 -11 -49 -23 0 -6 -10 -21 -21 -33 -20 -21 -20 -26 -9 -54 7 -17 21
-35 31 -40 32 -18 19 -45 -23 -48 -28 -2 -36 1 -32 11 2 7 0 26 -5 40 -8 21
-17 27 -41 27 -16 0 -30 3 -30 6 0 4 14 53 30 111 34 119 36 133 14 133 -8 0
-13 3 -10 8 2 4 -14 15 -37 24 -420 167 -408 163 -420 151z m641 -395 c3 -35
1 -38 -22 -38 -13 0 -31 -3 -40 -6 -10 -4 -19 3 -27 20 -17 36 12 68 55 64 28
-3 31 -7 34 -40z m-98 -299 c0 -33 -4 -58 -9 -55 -11 7 -24 103 -16 116 14 23
25 -5 25 -61z"/>
<path d="M655 1300 c3 -5 8 -10 11 -10 2 0 4 5 4 10 0 6 -5 10 -11 10 -5 0 -7
-4 -4 -10z"/>
<path d="M3910 1300 c-9 -6 -10 -10 -3 -10 6 0 15 5 18 10 8 12 4 12 -15 0z"/>
<path d="M3854 1285 c-4 -8 -3 -23 2 -32 6 -15 8 -13 12 10 2 15 8 25 13 22 5
-4 9 -1 9 4 0 17 -30 13 -36 -4z"/>
<path d="M3924 1265 c-10 -16 -13 -29 -7 -40 8 -13 12 -13 31 5 26 24 28 45 7
54 -9 3 -21 -4 -31 -19z"/>
<path d="M2249 1267 c-22 -17 -9 -60 21 -68 41 -11 60 -10 60 5 0 7 7 19 15
26 8 7 15 17 15 22 0 6 -7 5 -15 -2 -9 -7 -15 -8 -15 -2 0 7 -55 35 -64 32 -1
0 -8 -6 -17 -13z"/>
<path d="M3983 1260 c-12 -28 -8 -39 8 -23 6 6 9 19 6 29 -3 17 -5 16 -14 -6z"/>
<path d="M2265 1179 c-10 -15 3 -25 16 -12 7 7 7 13 1 17 -6 3 -14 1 -17 -5z"/>
<path d="M3900 1090 c0 -5 7 -10 15 -10 8 0 15 5 15 10 0 6 -7 10 -15 10 -8 0
-15 -4 -15 -10z"/>
<path d="M4118 1093 c23 -2 61 -2 85 0 23 2 4 4 -43 4 -47 0 -66 -2 -42 -4z"/>
<path d="M3100 1068 c-21 -9 -22 -12 -7 -15 18 -5 23 -18 8 -27 -5 -3 -21 6
-35 21 -19 19 -25 21 -20 8 6 -14 4 -16 -7 -10 -10 6 -10 3 2 -9 13 -14 69
-33 69 -24 0 2 4 18 9 36 5 17 9 32 8 31 -1 0 -13 -5 -27 -11z"/>
<path d="M3825 1070 c4 -6 11 -8 16 -5 14 9 11 15 -7 15 -8 0 -12 -5 -9 -10z"/>
<path d="M4305 1070 c3 -5 8 -10 11 -10 2 0 4 5 4 10 0 6 -5 10 -11 10 -5 0
-7 -4 -4 -10z"/>
<path d="M4382 1067 c-9 -10 -4 -13 19 -15 16 -1 29 2 29 7 0 6 30 12 68 14
64 3 64 3 -19 5 -61 1 -90 -2 -97 -11z"/>
<path d="M4270 1030 c0 -5 12 -10 28 -10 21 0 24 2 12 10 -20 13 -40 13 -40 0z"/>
<path d="M4345 1030 c3 -5 15 -10 25 -10 10 0 22 5 25 10 4 6 -7 10 -25 10
-18 0 -29 -4 -25 -10z"/>
<path d="M4470 1030 c-10 -7 7 -10 58 -10 41 0 72 4 72 10 0 13 -110 13 -130
0z"/>
<path d="M2220 983 c0 -34 5 -41 40 -60 52 -31 54 -29 25 15 -14 20 -29 47
-35 60 -15 34 -30 26 -30 -15z"/>
<path d="M1098 988 c-32 -11 -58 -24 -58 -30 0 -7 4 -7 13 -1 6 6 36 18 65 27
28 10 52 19 52 22 0 6 -11 4 -72 -18z"/>
<path d="M4347 1003 c18 -2 50 -2 70 0 21 2 7 4 -32 4 -38 0 -55 -2 -38 -4z"/>
<path d="M4553 1003 c9 -2 25 -2 35 0 9 3 1 5 -18 5 -19 0 -27 -2 -17 -5z"/>
<path d="M3910 965 c0 -9 6 -12 15 -9 8 4 12 10 9 15 -8 14 -24 10 -24 -6z"/>
<path d="M1000 950 c-8 -5 -10 -10 -5 -10 6 0 17 5 25 10 8 5 11 10 5 10 -5 0
-17 -5 -25 -10z"/>
<path d="M2000 935 c-101 -23 -150 -54 -150 -94 0 -19 15 -12 25 12 11 25 82
63 134 72 19 3 41 10 50 15 20 12 9 11 -59 -5z"/>
<path d="M945 930 c-13 -6 -15 -9 -5 -9 8 0 22 4 30 9 18 12 2 12 -25 0z"/>
<path d="M2648 813 c7 -3 16 -2 19 1 4 3 -2 6 -13 5 -11 0 -14 -3 -6 -6z"/>
<path d="M2730 798 c-36 -9 -41 -12 -25 -18 17 -7 16 -8 -9 -11 -41 -5 -47
-29 -7 -29 16 0 33 5 36 10 4 6 11 8 16 4 5 -3 8 0 7 8 -3 13 5 15 65 17 16 1
26 5 23 10 -4 5 0 12 6 14 23 10 -66 5 -112 -5z"/>
<path d="M2308 753 c7 -3 16 -2 19 1 4 3 -2 6 -13 5 -11 0 -14 -3 -6 -6z"/>
<path d="M2540 750 c0 -5 9 -10 20 -10 11 0 20 5 20 10 0 6 -9 10 -20 10 -11
0 -20 -4 -20 -10z"/>
<path d="M2546 680 c-18 -6 -18 -7 4 -13 14 -3 28 -3 33 2 12 12 -14 20 -37
11z"/>
<path d="M1147 3 c634 -2 1672 -2 2305 0 634 1 116 2 -1152 2 -1268 0 -1786
-1 -1153 -2z"/>
</g>
</svg>
