<?xml version="1.0" standalone="no"?>
<!DOCTYPE svg PUBLIC "-//W3C//DTD SVG 20010904//EN"
 "http://www.w3.org/TR/2001/REC-SVG-20010904/DTD/svg10.dtd">
<svg version="1.0" xmlns="http://www.w3.org/2000/svg"
 width="460.000000pt" height="460.000000pt" viewBox="0 0 460.000000 460.000000"
 preserveAspectRatio="xMidYMid meet">
<metadata>
Created by potrace 1.14, written by Peter Selinger 2001-2017
</metadata>
<g transform="translate(0.000000,460.000000) scale(0.100000,-0.100000)"
fill="#000000" stroke="none">
<path d="M2069 4583 c0 -10 -8 -98 -18 -197 l-17 -178 39 -25 c21 -13 40 -23
42 -21 3 4 45 396 45 421 0 14 -9 17 -45 17 -36 0 -45 -4 -46 -17z"/>
<path d="M2350 4594 c0 -3 59 -111 131 -240 l131 -234 -7 -82 c-8 -83 -32
-159 -57 -174 -9 -6 -9 -3 2 12 11 14 8 13 -11 -4 l-26 -23 -17 26 c-26 39
-32 22 -7 -18 24 -39 27 -51 9 -41 -7 4 -3 -3 10 -15 12 -12 22 -33 22 -46 0
-13 5 -27 10 -30 6 -4 8 -9 6 -13 -2 -4 -1 -26 4 -49 4 -24 3 -40 -1 -37 -5 3
-9 1 -9 -5 0 -5 5 -13 10 -16 11 -7 13 -55 4 -80 -5 -13 -13 -3 -29 36 -12 30
-26 68 -29 84 l-8 30 26 -24 c45 -43 27 -3 -40 86 -17 23 -57 84 -89 137 -31
52 -86 126 -122 163 -59 62 -54 54 41 -58 33 -39 106 -180 106 -204 0 -10 5
-13 13 -9 7 4 9 3 4 -2 -5 -5 -14 -9 -20 -9 -23 0 -17 -32 12 -75 17 -25 31
-51 31 -57 0 -7 4 -13 9 -13 5 0 15 -16 21 -35 6 -19 16 -35 21 -35 6 0 8 -4
5 -9 -4 -5 6 -23 20 -40 15 -18 38 -72 55 -128 34 -113 33 -103 14 -103 -8 0
-19 17 -26 43 -25 91 -43 144 -69 197 -30 62 -70 130 -76 130 -4 0 11 -29 35
-70 22 -36 61 -132 81 -200 12 -40 24 -79 27 -86 4 -11 -6 -14 -41 -14 -30 0
-46 4 -46 13 0 9 -2 9 -8 0 -5 -8 -18 -9 -42 -3 -19 4 -27 8 -17 9 17 1 25 31
7 31 -5 0 -9 10 -8 23 4 57 -93 333 -148 419 -31 48 -34 51 -34 26 0 -16 4
-28 10 -28 5 0 9 -10 8 -22 -2 -30 20 -96 44 -130 11 -16 15 -28 10 -28 -6 0
-12 6 -15 13 -2 6 -7 9 -11 6 -3 -3 8 -24 24 -46 18 -24 28 -47 24 -57 -3 -9
-10 -14 -14 -11 -5 3 -12 0 -16 -6 -4 -7 -3 -9 3 -6 12 7 51 -18 42 -28 -4 -3
-14 1 -22 10 -9 9 -20 15 -24 14 -4 -2 -9 4 -11 13 -6 30 -145 159 -157 146
-2 -2 23 -31 56 -63 55 -54 119 -134 119 -150 0 -3 11 -23 25 -45 14 -22 22
-40 18 -40 -5 0 -46 14 -92 30 -87 31 -108 36 -79 19 23 -13 193 -69 215 -70
10 -1 -9 -7 -42 -14 l-60 -13 50 -1 c28 -1 65 -5 83 -11 19 -5 58 -10 87 -11
30 -1 59 -5 65 -9 22 -14 -86 -34 -182 -34 -91 -1 -117 -7 -84 -19 8 -3 19
-44 29 -119 16 -111 35 -259 40 -308 4 -46 43 56 62 163 16 91 16 144 -1 212
-5 19 -3 24 8 20 8 -3 21 1 28 10 18 22 30 3 30 -48 0 -35 -1 -37 -16 -23 -8
9 -13 20 -9 25 3 5 1 12 -5 16 -22 14 -21 -29 5 -102 21 -61 25 -87 20 -128
-5 -41 -47 -189 -72 -255 -4 -10 -2 -12 5 -5 20 19 72 186 80 258 5 39 6 116
3 170 -7 112 -6 117 20 117 10 0 19 4 19 9 0 5 11 12 24 15 14 3 31 13 40 21
13 14 13 20 -1 62 -17 50 -13 116 22 303 9 47 16 100 16 118 1 17 4 32 8 32 4
0 6 13 3 29 -2 16 0 37 5 46 8 14 15 8 43 -37 19 -29 53 -73 77 -98 39 -41 48
-58 44 -83 -1 -5 -2 -30 -3 -58 0 -27 -4 -51 -7 -54 -12 -7 -5 -149 8 -153 6
-2 11 -10 11 -18 0 -9 4 -13 9 -10 5 4 12 0 14 -6 3 -7 6 2 6 20 1 17 5 32 11
32 6 0 6 9 2 23 -13 36 1 151 19 163 6 3 4 15 -5 30 -16 23 -24 52 -25 89 -1
23 -75 117 -85 108 -3 -4 -6 -2 -6 4 0 5 -11 23 -24 38 -14 16 -37 51 -52 78
-25 46 -26 56 -21 127 6 79 0 100 -33 100 -14 0 -50 50 -50 70 0 4 9 6 20 3
23 -6 28 15 5 23 -8 4 -12 10 -9 15 3 5 -16 50 -43 99 -36 68 -55 94 -80 105
-38 19 -78 64 -105 122 -17 36 -38 57 -38 37z m68 -879 c-3 -3 -9 2 -12 12 -6
14 -5 15 5 6 7 -7 10 -15 7 -18z m-1 -569 c15 -15 15 -174 0 -246 -27 -129
-34 -136 -42 -45 -4 44 -13 124 -21 177 -19 132 -20 126 21 123 19 -1 38 -5
42 -9z"/>
<path d="M4588 3468 c-3 -1126 -3 -1133 -23 -1131 -18 2 -18 2 2 -9 l22 -11 1
-1155 c0 -636 2 -1158 5 -1160 3 -3 5 1030 5 2296 0 1266 -2 2302 -5 2302 -3
0 -6 -510 -7 -1132z"/>
<path d="M2540 4080 c0 -5 9 -10 19 -10 11 0 23 5 26 10 4 6 -5 10 -19 10 -14
0 -26 -4 -26 -10z"/>
<path d="M75 4023 c14 -34 50 -234 61 -341 6 -58 5 -62 -12 -56 -11 4 -25 14
-31 22 -7 9 -15 13 -18 11 -5 -6 42 -289 50 -297 3 -3 5 0 5 6 0 7 9 12 19 12
28 0 48 -61 71 -215 10 -72 22 -138 25 -147 6 -15 -29 -58 -47 -58 -27 0 9
-27 145 -108 83 -51 156 -92 161 -92 18 0 -4 91 -26 111 -13 10 -26 18 -30 19
-23 1 -159 96 -163 114 -28 127 -148 876 -142 883 2 1 55 -29 117 -67 97 -57
116 -66 121 -52 4 10 5 20 2 25 -8 13 28 7 65 -12 20 -10 62 -35 92 -55 55
-37 70 -42 70 -28 0 14 -507 342 -528 342 -10 0 -12 -6 -7 -17z"/>
<path d="M2679 3808 c-6 -17 -3 -88 3 -88 4 0 8 -5 8 -11 0 -5 -4 -7 -10 -4
-6 4 -10 -5 -10 -19 0 -14 -5 -45 -11 -69 -11 -39 -10 -47 14 -91 l26 -48 10
38 c6 22 11 54 11 73 0 33 1 34 15 15 19 -25 20 -5 1 22 -10 13 -13 37 -11 67
2 31 -1 49 -11 58 -8 6 -14 20 -14 30 0 15 -18 38 -21 27z"/>
<path d="M2150 3621 c0 -5 7 -12 16 -15 24 -9 28 -7 14 9 -14 17 -30 20 -30 6z"/>
<path d="M1720 3491 c0 -5 5 -13 10 -16 6 -3 10 -2 10 4 0 5 -4 13 -10 16 -5
3 -10 2 -10 -4z"/>
<path d="M1750 3467 c0 -2 19 -19 43 -37 37 -29 39 -30 17 -6 -23 25 -60 52
-60 43z"/>
<path d="M1536 3428 c11 -13 37 -49 57 -80 21 -32 40 -58 43 -58 3 0 -4 13
-15 29 -12 16 -21 32 -21 35 0 13 -63 96 -72 96 -7 0 -3 -10 8 -22z"/>
<path d="M1860 3447 c0 -3 12 -12 26 -22 15 -9 23 -12 20 -6 -7 11 -46 35 -46
28z"/>
<path d="M2058 3439 c13 -5 21 -13 17 -18 -6 -11 45 -41 67 -41 7 0 -5 9 -27
20 l-40 20 35 -6 35 -5 -44 21 c-24 11 -48 20 -55 19 -6 0 -1 -4 12 -10z"/>
<path d="M1381 3395 c3 -5 10 -21 16 -35 7 -14 26 -60 44 -103 17 -43 33 -76
35 -74 2 2 -5 24 -15 48 -11 25 -23 63 -27 86 -4 26 -16 51 -32 65 -13 13 -23
19 -21 13z"/>
<path d="M2188 3393 c7 -3 16 -2 19 1 4 3 -2 6 -13 5 -11 0 -14 -3 -6 -6z"/>
<path d="M1920 3355 c27 -29 30 -30 30 -12 0 6 -12 18 -27 24 l-26 13 23 -25z"/>
<path d="M1346 3357 c3 -10 9 -15 12 -12 3 3 0 11 -7 18 -10 9 -11 8 -5 -6z"/>
<path d="M1966 3340 c5 -5 25 -12 44 -15 l35 -6 -34 15 c-38 18 -60 21 -45 6z"/>
<path d="M1370 3310 c6 -11 13 -20 16 -20 2 0 0 9 -6 20 -6 11 -13 20 -16 20
-2 0 0 -9 6 -20z"/>
<path d="M951 3304 c0 -11 3 -14 6 -6 3 7 2 16 -1 19 -3 4 -6 -2 -5 -13z"/>
<path d="M2148 3293 c6 -2 18 -2 25 0 6 3 1 5 -13 5 -14 0 -19 -2 -12 -5z"/>
<path d="M2488 3293 c6 -2 18 -2 25 0 6 3 1 5 -13 5 -14 0 -19 -2 -12 -5z"/>
<path d="M1788 3263 c-25 -27 -48 -65 -48 -79 0 -3 22 15 50 42 27 26 47 51
44 56 -9 14 -19 9 -46 -19z"/>
<path d="M2223 3283 c9 -2 23 -2 30 0 6 3 -1 5 -18 5 -16 0 -22 -2 -12 -5z"/>
<path d="M1390 3271 c0 -6 4 -13 10 -16 6 -3 7 1 4 9 -7 18 -14 21 -14 7z"/>
<path d="M1410 3231 c0 -6 4 -13 10 -16 6 -3 7 1 4 9 -7 18 -14 21 -14 7z"/>
<path d="M2829 3223 c12 -24 31 -39 31 -25 0 5 -10 17 -21 28 -22 19 -22 19
-10 -3z"/>
<path d="M2016 3211 c-108 -88 -173 -179 -158 -222 9 -22 9 -22 27 9 10 17 22
29 26 27 4 -3 9 1 12 9 4 9 14 12 26 9 27 -7 28 -43 1 -50 -11 -3 -20 -11 -20
-18 0 -22 69 -75 98 -75 23 0 27 5 29 30 2 21 -2 28 -12 24 -7 -3 -16 -12 -19
-20 -8 -20 -23 -17 -29 6 -3 13 -1 18 5 13 6 -3 16 1 22 9 6 8 29 24 52 36 22
11 46 28 53 36 19 23 31 20 29 -9 -2 -19 -8 -25 -26 -25 -21 0 -22 -2 -8 -15
17 -17 12 -41 -10 -49 -9 -3 -12 -10 -9 -16 10 -16 63 17 80 50 19 37 19 107
0 155 -15 34 -15 36 2 33 10 -2 26 -19 35 -38 l17 -35 1 48 c0 33 5 49 15 53
34 13 10 22 -77 27 -51 3 -104 8 -118 10 -14 2 -34 -4 -44 -12z m-16 -191 c0
-5 -2 -10 -4 -10 -3 0 -8 5 -11 10 -3 6 -1 10 4 10 6 0 11 -4 11 -10z"/>
<path d="M2666 3153 c4 -16 13 -39 21 -53 9 -15 12 -17 8 -5 -4 11 -11 35 -17
53 -11 39 -21 43 -12 5z"/>
<path d="M1480 3165 c0 -5 5 -17 10 -25 5 -8 10 -10 10 -5 0 6 -5 17 -10 25
-5 8 -10 11 -10 5z"/>
<path d="M2591 3117 c0 -23 4 -62 9 -87 8 -39 8 -35 5 28 l-4 73 31 -38 c37
-47 58 -86 58 -110 0 -12 3 -14 11 -6 13 13 6 28 -50 115 -47 74 -61 80 -60
25z"/>
<path d="M1691 3145 c0 -5 6 -21 14 -35 8 -14 14 -20 14 -15 0 6 -6 21 -14 35
-8 14 -14 21 -14 15z"/>
<path d="M1024 3035 c0 -49 1 -71 3 -48 2 23 2 64 0 90 -2 26 -3 8 -3 -42z"/>
<path d="M1731 3034 c0 -11 3 -14 6 -6 3 7 2 16 -1 19 -3 4 -6 -2 -5 -13z"/>
<path d="M1559 2952 c6 -12 16 -24 22 -28 8 -4 8 -1 0 14 -6 12 -16 24 -22 28
-8 4 -8 1 0 -14z"/>
<path d="M1211 2941 c-10 -7 -10 -10 -1 -16 6 -4 16 -3 22 3 13 13 -4 23 -21
13z"/>
<path d="M1105 2908 c-66 -23 -71 -25 -63 -33 8 -9 148 38 142 47 -7 10 -8 10
-79 -14z"/>
<path d="M2701 2884 c0 -11 3 -14 6 -6 3 7 2 16 -1 19 -3 4 -6 -2 -5 -13z"/>
<path d="M1406 2825 c9 -14 18 -25 20 -25 2 0 -2 11 -8 25 -6 14 -15 25 -20
25 -5 0 -1 -11 8 -25z"/>
<path d="M1323 2824 c0 -8 7 -14 16 -15 9 0 3 -5 -12 -11 -28 -10 -28 -10 -10
-32 l18 -21 -22 19 c-17 14 -31 17 -55 12 -35 -7 -123 -55 -115 -63 3 -3 -3
-24 -13 -48 -13 -31 -15 -46 -7 -54 7 -7 7 -18 -1 -36 -10 -21 -9 -33 6 -63
32 -66 103 -181 120 -194 15 -12 16 -11 3 5 -18 22 -9 22 31 -3 18 -11 40 -20
48 -19 13 0 13 1 0 6 -31 12 -109 66 -115 81 -4 12 -1 12 20 -2 21 -14 25 -14
25 -2 0 8 -6 19 -13 23 -21 13 -47 56 -47 77 0 10 -11 34 -25 52 -23 30 -32
54 -21 54 3 0 16 -4 30 -10 29 -11 32 -4 11 24 -8 11 -15 27 -15 37 0 19 40
73 48 65 3 -3 11 -1 18 5 7 6 23 8 34 4 30 -9 24 -50 -7 -49 -29 1 -29 -6 -2
-35 27 -29 96 -61 129 -60 17 1 19 3 8 6 -27 7 -21 38 13 67 17 14 34 26 39
26 4 0 10 6 13 14 4 9 -23 40 -72 84 -43 39 -78 64 -78 56z m7 -134 c0 -5 -4
-10 -10 -10 -5 0 -10 5 -10 10 0 6 5 10 10 10 6 0 10 -4 10 -10z m50 -67 c0
-7 -9 -13 -20 -13 -19 0 -26 11 -15 22 10 10 35 4 35 -9z"/>
<path d="M905 2793 c12 -74 34 -169 50 -212 20 -59 19 -72 -5 -36 -11 17 -20
26 -20 22 0 -4 7 -18 16 -32 11 -17 16 -54 18 -134 l3 -110 45 -68 c53 -81
130 -166 201 -225 64 -53 44 -27 -45 60 -37 35 -65 68 -63 73 3 4 -6 37 -19
73 -28 74 -19 86 20 26 14 -22 34 -42 45 -45 34 -11 184 -116 234 -165 28 -26
66 -53 85 -58 19 -6 75 -25 124 -43 l88 -32 45 22 c67 33 94 110 52 152 -11
11 -19 23 -16 25 2 3 27 7 54 11 88 10 163 -27 203 -100 13 -23 31 -51 40 -62
28 -33 115 -252 135 -338 6 -28 7 -28 91 62 107 114 159 155 182 146 16 -6 15
-7 -3 -17 -25 -13 -75 -59 -75 -69 0 -3 15 8 33 25 19 17 58 43 87 59 31 15
46 27 34 27 -11 0 -29 -7 -41 -15 -17 -12 -22 -12 -26 -1 -9 22 35 35 171 51
143 17 292 20 292 6 0 -5 -12 -12 -27 -14 -17 -2 -10 -5 20 -6 26 0 47 1 47 3
0 2 -16 24 -36 48 -57 68 -128 177 -186 284 -39 75 -71 118 -128 175 -75 75
-120 103 -128 80 -2 -6 -12 -21 -23 -33 l-19 -23 10 28 c13 36 13 37 -6 37 -8
0 -48 22 -88 48 l-73 48 13 -59 c16 -65 23 -82 67 -146 36 -52 52 -149 63
-367 l7 -147 -29 7 c-49 12 -207 84 -288 132 -59 35 -85 57 -111 97 -61 92
-66 97 -130 107 -59 10 -60 9 -92 -22 l-32 -31 -43 16 c-43 17 -108 69 -108
88 0 5 9 28 20 49 15 29 27 40 43 40 24 0 67 37 67 57 0 13 -28 25 -41 17 -6
-3 -31 -9 -56 -12 -46 -7 -47 -8 -82 -79 -28 -55 -40 -70 -53 -66 -23 6 -23
-2 3 -39 20 -28 21 -30 3 -26 -10 2 -30 23 -43 47 -19 35 -22 48 -13 62 10 16
6 18 -52 21 -46 2 -62 0 -59 -9 3 -7 1 -18 -3 -25 -5 -7 -9 -16 -9 -20 0 -12
-15 -21 -15 -9 0 7 -5 9 -10 6 -6 -4 -9 -2 -8 3 2 5 -19 25 -47 44 -35 24 -69
63 -111 126 -43 63 -64 87 -68 76 -4 -10 -2 -13 6 -8 7 4 8 3 4 -4 -4 -6 0
-22 8 -35 16 -23 48 -117 40 -117 -2 0 -11 16 -19 36 -13 33 -17 35 -33 23
-15 -13 -16 -12 -4 3 11 14 10 24 -7 63 -11 25 -16 43 -11 40 13 -8 13 2 -1
26 -5 11 -15 17 -22 13 -7 -4 -9 -4 -5 1 4 4 2 15 -4 24 -7 9 2 3 20 -14 l33
-29 -29 59 c-16 33 -34 71 -40 85 -11 24 -11 24 -5 -5 6 -28 5 -29 -12 -15
-17 14 -18 14 -5 -10 7 -14 8 -20 2 -15 -5 6 -29 58 -52 118 -24 59 -45 107
-47 107 -2 0 -1 -17 2 -37z m55 -116 c0 -16 -18 3 -23 25 -6 22 -5 22 8 4 8
-11 15 -24 15 -29z m69 -170 c8 -10 7 -14 -2 -14 -8 0 -14 6 -14 14 0 7 1 13
2 13 2 0 8 -6 14 -13z m36 -67 c0 -3 4 -11 9 -18 17 -28 0 -18 -29 17 -16 19
-24 32 -17 27 7 -4 12 -2 12 6 1 11 24 -19 25 -32z m-30 -149 c3 -5 2 -12 -3
-15 -5 -3 -9 1 -9 9 0 17 3 19 12 6z m39 -90 c36 -80 33 -85 -13 -21 -35 48
-43 80 -21 80 4 0 19 -26 34 -59z m1709 -180 c15 -27 27 -54 27 -60 0 -6 -16
-11 -36 -11 -33 0 -37 3 -58 53 -13 28 -22 55 -19 60 2 4 16 7 31 7 22 0 32
-9 55 -49z"/>
<path d="M971 2804 c0 -11 3 -14 6 -6 3 7 2 16 -1 19 -3 4 -6 -2 -5 -13z"/>
<path d="M1435 2790 c-5 -9 61 -93 78 -99 11 -4 5 7 -25 52 -17 24 -17 27 -3
27 9 0 14 4 11 9 -8 12 -55 20 -61 11z"/>
<path d="M2581 2774 c0 -11 3 -14 6 -6 3 7 2 16 -1 19 -3 4 -6 -2 -5 -13z"/>
<path d="M1071 2724 c0 -11 3 -14 6 -6 3 7 2 16 -1 19 -3 4 -6 -2 -5 -13z"/>
<path d="M651 2714 c0 -11 3 -14 6 -6 3 7 2 16 -1 19 -3 4 -6 -2 -5 -13z"/>
<path d="M2492 2705 c0 -16 2 -22 5 -12 2 9 2 23 0 30 -3 6 -5 -1 -5 -18z"/>
<path d="M2361 2704 c0 -11 3 -14 6 -6 3 7 2 16 -1 19 -3 4 -6 -2 -5 -13z"/>
<path d="M1001 2694 c0 -11 3 -14 6 -6 3 7 2 16 -1 19 -3 4 -6 -2 -5 -13z"/>
<path d="M1081 2674 c0 -11 3 -14 6 -6 3 7 2 16 -1 19 -3 4 -6 -2 -5 -13z"/>
<path d="M651 2672 c-1 -7 5 -25 12 -40 7 -15 12 -40 11 -57 -4 -54 18 -197
28 -183 7 9 8 1 5 -22 -3 -19 -3 -29 0 -22 7 17 23 5 23 -18 0 -10 5 -22 11
-26 7 -4 9 0 5 14 -14 44 -14 59 0 59 9 0 11 -4 5 -10 -6 -6 -6 -19 0 -35 5
-14 8 -31 5 -38 -3 -8 0 -16 6 -20 7 -5 8 -2 3 7 -6 11 -5 11 4 3 7 -6 15 -30
18 -53 4 -27 11 -41 20 -41 12 0 13 7 8 28 -11 41 -16 86 -8 79 5 -6 9 -22 12
-61 1 -6 5 -6 12 1 7 7 5 23 -7 52 -13 32 -19 39 -26 29 -7 -9 -8 -8 -4 6 8
24 -2 58 -15 50 -6 -3 -9 0 -7 7 4 23 -24 109 -34 103 -6 -4 -7 2 -3 16 5 15
4 20 -4 16 -7 -4 -9 -1 -5 8 3 9 -5 32 -18 53 -12 21 -31 54 -40 73 -9 19 -17
29 -17 22z"/>
<path d="M1507 2660 c5 -18 -3 -32 -41 -70 -20 -20 -20 -20 1 -20 43 0 85 89
49 103 -9 4 -12 0 -9 -13z"/>
<path d="M643 2595 c0 -27 2 -38 4 -22 2 15 2 37 0 50 -2 12 -4 0 -4 -28z"/>
<path d="M1096 2595 c4 -8 10 -15 15 -15 4 0 6 7 3 15 -4 8 -10 15 -15 15 -4
0 -6 -7 -3 -15z"/>
<path d="M880 2555 c-4 -20 2 -70 9 -77 4 -5 5 9 3 30 -4 42 -9 63 -12 47z"/>
<path d="M1499 2471 c-31 -31 -66 -76 -78 -99 -23 -46 -20 -51 41 -66 24 -5
28 -3 37 28 5 19 25 56 45 82 27 35 36 56 34 78 -2 16 -7 31 -13 32 -5 2 -35
-23 -66 -55z"/>
<path d="M894 2370 c3 -14 10 -59 17 -100 7 -41 14 -70 16 -64 5 14 -23 173
-32 182 -4 4 -4 -4 -1 -18z"/>
<path d="M652 2260 c0 -8 4 -26 8 -40 6 -20 8 -21 8 -5 0 11 -3 29 -8 40 -5
12 -8 14 -8 5z"/>
<path d="M976 2173 c4 -43 11 -82 16 -88 7 -7 8 5 4 35 -3 25 -2 51 3 59 7 11
-13 71 -24 71 -3 0 -2 -35 1 -77z"/>
<path d="M847 2233 c-4 -3 -7 -11 -7 -17 0 -6 5 -5 12 2 6 6 9 14 7 17 -3 3
-9 2 -12 -2z"/>
<path d="M2104 2188 l-19 -23 23 19 c21 18 27 26 19 26 -2 0 -12 -10 -23 -22z"/>
<path d="M1673 2193 c9 -2 23 -2 30 0 6 3 -1 5 -18 5 -16 0 -22 -2 -12 -5z"/>
<path d="M1748 2183 c7 -3 16 -2 19 1 4 3 -2 6 -13 5 -11 0 -14 -3 -6 -6z"/>
<path d="M821 2164 c0 -11 3 -14 6 -6 3 7 2 16 -1 19 -3 4 -6 -2 -5 -13z"/>
<path d="M931 2164 c0 -11 3 -14 6 -6 3 7 2 16 -1 19 -3 4 -6 -2 -5 -13z"/>
<path d="M1006 2165 c-9 -26 -7 -32 5 -12 6 10 9 21 6 23 -2 3 -7 -2 -11 -11z"/>
<path d="M4119 2051 c30 -27 51 -39 51 -27 0 2 -19 16 -42 30 l-43 28 34 -31z"/>
<path d="M1059 2027 c26 -28 31 -32 31 -19 0 4 -13 16 -28 26 l-27 19 24 -26z"/>
<path d="M3032 1900 c0 -14 2 -19 5 -12 2 6 2 18 0 25 -3 6 -5 1 -5 -13z"/>
<path d="M1770 1865 c0 -4 8 -19 19 -33 10 -15 33 -56 50 -91 18 -34 34 -61
36 -59 2 2 -4 36 -14 76 l-18 72 21 -5 c26 -7 -41 30 -71 39 -13 4 -23 4 -23
1z"/>
<path d="M3042 1845 c0 -16 2 -22 5 -12 2 9 2 23 0 30 -3 6 -5 -1 -5 -18z"/>
<path d="M2818 1853 c12 -2 32 -2 45 0 12 2 2 4 -23 4 -25 0 -35 -2 -22 -4z"/>
<path d="M3341 1818 c-13 -24 -20 -39 -15 -35 5 5 13 -6 19 -23 l10 -30 18 33
c16 29 17 38 5 65 l-13 32 -24 -42z"/>
<path d="M2595 1840 c-42 -11 -1 -11 50 -1 34 7 35 9 10 9 -16 0 -43 -4 -60
-8z"/>
<path d="M3286 1751 c-24 -26 -81 -53 -135 -63 -57 -10 -74 -24 -60 -49 22
-42 143 -16 216 45 32 27 32 28 18 57 -18 34 -17 34 -39 10z"/>
<path d="M3396 1708 c-12 -63 -127 -138 -210 -138 -23 0 -26 -3 -17 -13 13
-17 103 -7 147 16 59 31 116 110 103 145 -11 30 -15 28 -23 -10z"/>
<path d="M2207 1519 c4 -13 8 -18 11 -10 2 7 -1 18 -6 23 -8 8 -9 4 -5 -13z"/>
<path d="M1911 1424 c0 -11 3 -14 6 -6 3 7 2 16 -1 19 -3 4 -6 -2 -5 -13z"/>
<path d="M3546 1417 c3 -10 9 -15 12 -12 3 3 0 11 -7 18 -10 9 -11 8 -5 -6z"/>
<path d="M3584 1345 c9 -14 23 -36 32 -50 9 -14 19 -24 21 -21 3 3 -10 25 -28
50 -34 49 -53 63 -25 21z"/>
<path d="M1885 1297 c-4 -17 -3 -45 4 -67 6 -20 11 -60 11 -88 0 -28 4 -53 9
-56 5 -3 7 16 5 42 -3 36 -2 41 5 22 l9 -25 2 25 1 25 10 -23 c5 -13 13 -20
19 -17 6 4 19 -4 30 -17 15 -18 19 -39 20 -98 0 -87 13 -111 42 -78 10 12 18
17 18 12 0 -5 12 -10 27 -11 15 0 21 2 14 7 -20 12 -9 55 15 58 33 5 55 -23
44 -54 -6 -14 -10 -36 -10 -49 0 -13 -6 -30 -12 -37 -16 -16 -17 -90 -2 -100
6 -4 9 -28 6 -61 -3 -34 0 -57 7 -61 6 -4 11 -17 12 -29 0 -18 2 -16 10 8 31
94 42 115 57 115 14 0 14 2 3 9 -9 6 -12 18 -7 37 3 16 9 43 12 59 3 17 13 36
22 43 9 7 11 12 4 12 -8 0 -10 9 -6 28 9 36 8 35 49 28 37 -7 47 -32 23 -58
-7 -7 -14 -26 -14 -43 -3 -46 -15 -99 -26 -112 -6 -7 -8 -13 -5 -13 7 0 -38
-162 -52 -188 -15 -29 -14 -42 4 -36 17 7 19 -4 5 -26 -8 -12 -12 -12 -18 -2
-6 9 -12 6 -20 -13 -15 -32 -15 -38 -2 -30 6 3 10 -1 10 -9 0 -19 -17 -30 -22
-14 -3 8 -9 4 -17 -10 -9 -17 -9 -27 -2 -36 8 -10 8 -16 -2 -25 -8 -6 -16 -9
-18 -6 -3 2 -5 -8 -4 -23 0 -21 -5 -28 -23 -30 -15 -2 -30 -18 -44 -45 -11
-23 -24 -44 -27 -47 -4 -3 -13 -20 -20 -38 -19 -45 -28 -48 -56 -16 -21 24
-27 26 -48 17 -23 -11 -24 -9 -36 40 -7 29 -19 62 -27 74 -18 29 -18 110 1
162 8 23 12 49 9 59 -5 14 -4 14 4 3 13 -18 19 4 26 99 3 36 7 79 10 95 l6 30
-11 -28 c-7 -17 -25 -33 -46 -42 -19 -8 -32 -19 -29 -24 4 -5 2 -12 -4 -16 -5
-3 -10 2 -11 12 0 11 -3 13 -6 5 -2 -6 -9 -10 -14 -6 -12 7 -11 -16 2 -154
l11 -114 -27 -26 c-22 -20 -29 -22 -37 -11 -6 10 -7 6 -2 -11 4 -14 10 -40 15
-58 4 -19 14 -41 22 -50 12 -14 41 -96 63 -179 3 -10 70 -13 294 -13 159 0
290 1 290 3 0 1 9 50 19 108 15 88 26 119 61 180 45 77 162 252 250 374 46 64
120 186 120 198 0 3 -8 3 -17 1 -26 -7 -194 39 -345 94 -73 27 -173 59 -223
72 -106 27 -148 47 -273 129 -82 54 -95 67 -116 113 -23 52 -24 53 -31 25z
m32 -109 c-3 -8 -6 -5 -6 6 -1 11 2 17 5 13 3 -3 4 -12 1 -19z m160 -210 c-3
-8 -6 -5 -6 6 -1 11 2 17 5 13 3 -3 4 -12 1 -19z m300 -60 c-3 -8 -6 -5 -6 6
-1 11 2 17 5 13 3 -3 4 -12 1 -19z m115 -8 c15 0 3 -88 -18 -133 -14 -30 -22
-36 -38 -31 -30 9 -30 7 -11 86 21 88 23 91 42 84 8 -3 19 -6 25 -6z m-320
-42 c-8 -8 -9 -4 -5 13 4 13 8 18 11 10 2 -7 -1 -18 -6 -23z m185 -30 c-3 -8
-6 -5 -6 6 -1 11 2 17 5 13 3 -3 4 -12 1 -19z m-20 -80 c-3 -7 -5 -2 -5 12 0
14 2 19 5 13 2 -7 2 -19 0 -25z m-243 -562 c-3 -9 -10 -16 -15 -16 -6 0 -5 9
1 21 13 24 24 20 14 -5z m-46 -81 c-6 -14 -15 -25 -19 -25 -5 0 -3 11 3 25 6
14 15 25 19 25 5 0 3 -11 -3 -25z m-52 -40 c-4 -14 -10 -24 -15 -21 -4 3 -7
-4 -7 -16 1 -12 -5 -23 -11 -25 -18 -6 -16 23 4 69 19 42 40 37 29 -7z"/>
<path d="M2316 1168 c13 -39 25 -73 27 -74 1 -2 54 -16 117 -33 63 -16 151
-43 195 -61 44 -18 108 -40 142 -50 l61 -18 -20 34 c-28 48 -70 80 -130 99
-156 50 -333 123 -379 156 -15 10 -29 19 -32 19 -3 0 5 -32 19 -72z"/>
<path d="M3321 1209 c0 -19 -21 -116 -46 -214 l-46 -178 26 -48 c31 -60 31
-70 0 -99 -14 -13 -40 -47 -57 -74 -18 -28 -50 -75 -73 -105 l-40 -55 -6 45
-6 44 -1 -41 c-2 -42 -25 -81 -52 -86 -8 -2 -23 -11 -34 -20 -18 -17 -21 -17
-38 -1 -10 9 -18 11 -18 5 0 -6 6 -13 13 -16 6 -3 0 -3 -15 0 -28 6 -40 -10
-15 -19 6 -3 2 -6 -11 -6 -15 -1 -21 -5 -16 -13 5 -8 2 -9 -9 -5 -9 3 -19 2
-22 -3 -4 -6 -10 -10 -14 -10 -13 0 41 181 71 238 8 16 14 19 20 10 6 -10 8
-10 8 0 0 7 4 11 9 8 4 -3 16 3 26 14 10 11 23 20 30 20 6 0 18 12 26 28 8 15
20 32 28 38 15 12 7 89 -11 100 -7 4 -8 2 -4 -4 4 -7 3 -12 -2 -12 -6 0 -34
-20 -63 -44 -45 -37 -55 -42 -64 -29 -9 12 -12 5 -14 -29 -3 -64 -17 -118 -67
-272 -45 -138 -61 -165 -111 -186 -13 -5 -23 -14 -23 -20 0 -7 6 -8 19 0 11 5
38 10 60 10 35 0 46 -7 100 -61 33 -33 68 -73 78 -90 17 -28 20 -29 89 -29 66
0 73 2 88 25 9 14 22 23 28 19 7 -4 8 -3 4 4 -9 15 42 89 88 130 20 17 36 36
36 41 0 10 71 102 113 146 29 31 40 55 25 55 -7 0 -3 9 10 23 12 12 34 37 48
55 14 17 30 30 35 26 5 -3 9 4 9 15 0 12 7 21 15 21 9 0 12 6 9 15 -4 10 0 15
14 15 15 0 20 5 17 20 -3 14 3 22 21 26 15 4 24 14 25 28 2 46 4 56 12 56 4 0
7 -3 8 -7 0 -5 6 -11 14 -16 10 -5 11 -13 2 -37 -6 -17 -15 -30 -20 -30 -5 0
-4 -7 3 -16 11 -13 10 -16 -8 -20 -23 -7 -34 -38 -25 -73 l6 -24 24 29 c18 23
23 25 23 11 0 -10 -7 -34 -15 -54 -8 -19 -15 -47 -15 -62 -1 -30 -25 -78 -36
-71 -5 3 -11 -9 -15 -26 -3 -17 -21 -53 -40 -80 -18 -27 -35 -51 -37 -54 -2
-2 -7 2 -12 10 -9 13 -10 13 -11 0 -1 -8 -1 -21 0 -29 2 -8 -2 -10 -9 -6 -16
10 -31 -15 -24 -40 4 -15 3 -16 -4 -6 -8 11 -12 10 -21 -7 -6 -11 -8 -27 -5
-35 3 -8 0 -18 -7 -23 -9 -5 -10 -2 -6 10 12 30 -10 8 -23 -24 -7 -16 -16 -27
-21 -24 -5 3 -9 0 -9 -5 0 -7 26 -11 64 -11 l64 0 12 36 c7 19 34 61 60 93 26
32 57 75 68 97 11 21 53 75 92 119 84 94 102 126 131 231 36 130 36 134 -10
195 -23 30 -41 64 -41 76 0 12 -9 27 -20 33 -17 9 -20 8 -20 -11 0 -26 -30
-79 -45 -79 -6 0 -27 -8 -46 -18 -19 -10 -55 -19 -80 -20 -24 -2 -48 -7 -53
-12 -6 -6 6 -7 29 -3 28 4 36 3 31 -5 -10 -17 -71 -15 -85 2 -10 12 -8 18 11
29 13 8 34 17 48 21 35 9 63 33 55 46 -5 8 -28 10 -67 7 -56 -4 -61 -3 -93 28
-19 17 -37 30 -39 28 -2 -3 -9 5 -16 17 -9 17 -7 28 11 58 l22 37 -37 -35
c-36 -34 -37 -34 -43 -12 -3 12 -9 22 -14 22 -6 0 -14 10 -19 23 -5 12 -9 16
-9 10 -1 -7 -5 -13 -9 -13 -11 0 -8 51 8 135 7 39 10 79 7 90 -3 12 -5 6 -6
-16z m246 -415 c-3 -3 -12 -4 -19 -1 -8 3 -5 6 6 6 11 1 17 -2 13 -5z m-117
-118 c0 -2 -7 -9 -15 -16 -13 -11 -14 -10 -9 4 5 14 24 23 24 12z m73 -5 c4 0
7 -5 7 -10 0 -10 -48 -2 -55 9 -4 6 16 7 48 1z m-33 -35 c0 -11 -19 -15 -25
-6 -3 5 1 10 9 10 9 0 16 -2 16 -4z m206 -50 c-20 -39 -28 -18 -9 24 11 23 17
30 20 19 2 -8 -3 -28 -11 -43z"/>
<path d="M3667 1146 c-9 -24 -9 -28 3 -21 6 3 10 1 10 -6 0 -7 2 -10 5 -7 3 3
2 15 -3 28 -8 20 -9 21 -15 6z"/>
<path d="M3690 1099 c0 -4 7 -26 16 -50 10 -28 13 -60 10 -87 -5 -40 -4 -42
10 -27 24 23 28 12 9 -24 -13 -26 -13 -31 -1 -31 33 0 39 27 17 85 -12 30 -20
59 -19 63 1 4 -8 23 -20 42 -12 19 -22 32 -22 29z m47 -141 c-3 -8 -6 -5 -6 6
-1 11 2 17 5 13 3 -3 4 -12 1 -19z"/>
<path d="M1933 765 c0 -27 2 -38 4 -22 2 15 2 37 0 50 -2 12 -4 0 -4 -28z"/>
<path d="M1860 780 c8 -5 24 -10 34 -10 26 0 18 6 -19 14 -22 5 -26 4 -15 -4z"/>
<path d="M2901 744 c0 -11 3 -14 6 -6 3 7 2 16 -1 19 -3 4 -6 -2 -5 -13z"/>
<path d="M3071 644 c0 -11 3 -14 6 -6 3 7 2 16 -1 19 -3 4 -6 -2 -5 -13z"/>
<path d="M2077 443 c-10 -10 -8 -46 4 -63 8 -12 9 -10 4 9 -5 15 -3 21 3 17 6
-4 16 2 21 13 16 28 13 35 -6 20 -11 -10 -14 -10 -9 -1 7 12 -6 17 -17 5z"/>
<path d="M4268 358 c-16 -5 -28 -14 -28 -19 0 -5 12 -3 28 4 15 8 34 17 42 20
13 5 13 5 0 5 -8 0 -27 -4 -42 -10z"/>
<path d="M3480 340 c0 -13 11 -13 30 0 12 8 11 10 -7 10 -13 0 -23 -4 -23 -10z"/>
<path d="M3396 224 c-3 -8 -14 -14 -24 -14 -20 0 -57 -55 -57 -85 0 -11 -6
-20 -12 -21 -7 -1 -18 -2 -23 -3 -6 0 -8 -12 -4 -26 8 -33 -26 -78 -36 -49 -6
16 -7 16 -12 -2 -5 -18 0 -21 37 -23 43 -2 64 16 48 41 -3 6 -1 8 4 5 13 -8
28 9 38 42 5 18 4 22 -6 16 -8 -4 5 11 29 33 24 21 44 49 45 61 1 11 8 21 16
21 20 0 8 10 -17 15 -11 2 -23 -3 -26 -11z"/>
<path d="M2656 122 c-36 -52 -33 -57 16 -25 31 21 37 29 24 31 -10 2 -15 10
-12 18 9 24 0 16 -28 -24z m24 4 c0 -2 -8 -10 -17 -17 -16 -13 -17 -12 -4 4
13 16 21 21 21 13z"/>
<path d="M2731 127 c2 -1 13 -9 24 -17 19 -14 19 -14 6 3 -7 9 -18 17 -24 17
-6 0 -8 -1 -6 -3z"/>
<path d="M2583 50 c-18 -11 -33 -22 -33 -25 0 -2 16 5 35 16 19 12 35 23 35
25 0 6 -3 5 -37 -16z"/>
</g>
</svg>
