<?xml version="1.0" standalone="no"?>
<!DOCTYPE svg PUBLIC "-//W3C//DTD SVG 20010904//EN"
 "http://www.w3.org/TR/2001/REC-SVG-20010904/DTD/svg10.dtd">
<svg version="1.0" xmlns="http://www.w3.org/2000/svg"
 width="460.000000pt" height="460.000000pt" viewBox="0 0 460.000000 460.000000"
 preserveAspectRatio="xMidYMid meet">
<metadata>
Created by potrace 1.14, written by Peter Selinger 2001-2017
</metadata>
<g transform="translate(0.000000,460.000000) scale(0.100000,-0.100000)"
fill="#000000" stroke="none">
<path d="M230 4568 c25 -18 52 -39 60 -46 35 -30 134 -102 140 -102 4 0 27
-16 51 -35 24 -19 49 -35 55 -35 6 0 18 -7 25 -16 8 -9 30 -27 49 -41 115 -78
137 -102 143 -159 3 -21 10 -51 16 -66 6 -17 7 -30 1 -33 -11 -7 17 -39 43
-48 12 -5 17 -17 17 -45 0 -43 14 -62 46 -62 13 0 26 -5 30 -12 4 -7 3 -8 -4
-4 -18 11 -14 -6 8 -32 11 -13 24 -21 29 -18 9 6 24 -24 19 -40 -5 -19 14 -54
30 -54 9 0 28 -15 42 -32 14 -18 38 -45 54 -60 29 -27 29 -28 11 -48 -16 -18
-17 -23 -5 -30 8 -6 19 -10 24 -10 4 0 6 -7 2 -15 -4 -10 1 -15 16 -15 23 0
88 -63 88 -85 0 -8 10 -17 21 -20 12 -4 37 -22 55 -41 35 -35 48 -59 16 -30
-18 15 -20 15 -37 -4 -18 -20 -18 -20 -38 20 -22 42 -124 130 -151 130 -9 0
-16 -7 -16 -15 0 -19 -10 -19 -37 0 -22 16 -64 8 -78 -14 -3 -6 -18 -11 -32
-11 -32 0 -87 -57 -147 -150 -74 -113 -131 -238 -125 -271 1 -8 -1 -23 -5 -34
-13 -34 -118 -238 -144 -280 -86 -137 -195 -447 -184 -520 1 -6 -16 -11 -38
-11 -23 -1 -40 3 -40 10 0 6 -5 4 -10 -4 -8 -12 -10 -12 -10 -1 0 9 -10 12
-36 9 -28 -3 -38 0 -46 16 -8 15 -8 21 0 24 22 7 -15 32 -47 32 -17 0 -30 4
-29 9 2 5 -1 10 -7 11 -5 1 -20 6 -33 11 l-22 9 0 -179 0 -179 122 -6 c68 -3
217 -8 331 -11 115 -3 219 -10 233 -15 14 -6 24 -6 24 0 0 5 12 7 28 5 15 -2
52 -4 84 -4 53 -1 57 -2 67 -32 6 -17 14 -60 17 -95 4 -35 12 -64 18 -65 6 -1
22 -1 36 -1 25 1 25 1 2 -6 -13 -4 -23 -10 -23 -14 1 -5 1 -17 1 -28 0 -26 23
-17 40 16 10 18 16 21 23 12 6 -9 7 -6 2 7 -8 24 -35 137 -35 148 0 4 7 7 15
7 8 0 15 -4 15 -10 0 -5 12 -10 28 -10 15 0 34 -5 42 -10 12 -8 9 -10 -12 -10
-16 0 -28 -5 -28 -11 0 -6 12 -9 28 -7 21 2 26 -1 24 -14 -2 -11 3 -18 13 -18
8 0 14 -5 13 -12 -3 -14 2 -15 83 -17 52 -1 62 -4 66 -21 4 -14 14 -20 32 -20
23 0 27 4 25 22 -1 13 -3 31 -3 41 -1 10 -9 17 -22 17 -11 0 -17 5 -14 10 3 6
17 10 31 10 17 0 24 5 24 20 0 11 4 20 8 20 13 0 32 -48 32 -80 0 -34 20 -37
34 -5 9 19 10 19 13 -3 4 -20 14 -27 36 -23 4 0 7 -6 7 -15 0 -8 -4 -13 -8
-10 -4 2 -14 1 -22 -5 -12 -7 -11 -9 5 -9 18 -1 18 -2 3 -10 -9 -6 -16 -22
-16 -38 0 -15 -1 -34 -3 -42 -3 -12 18 -15 131 -17 74 -2 155 -6 180 -9 42 -6
43 -7 20 -16 -14 -5 -79 -10 -145 -11 -90 -1 -124 -5 -137 -17 -22 -18 -23
-30 -3 -30 21 0 35 -32 35 -79 0 -46 9 -55 44 -42 23 9 24 13 16 43 -6 18 -6
36 -1 41 8 8 91 19 286 37 162 14 195 20 195 33 0 7 3 23 6 37 6 21 4 23 -7
13 -16 -16 -53 -17 -80 -3 -33 18 -22 33 21 27 33 -4 40 -2 40 12 0 30 -60
110 -123 164 -65 56 -78 69 -173 168 -99 104 -107 174 -30 258 24 25 41 52 38
60 -3 9 1 11 16 7 11 -4 23 -2 27 3 3 6 -6 13 -20 17 -29 7 -34 24 -7 24 20 0
54 -31 51 -46 -1 -5 -1 -19 0 -31 1 -19 5 -22 29 -17 20 4 33 0 46 -15 11 -12
24 -21 30 -21 6 1 32 30 59 65 68 93 89 85 30 -11 -44 -73 -133 -286 -133
-320 0 -8 26 -43 58 -77 32 -34 70 -77 84 -94 l27 -33 64 108 c113 190 141
231 160 232 25 0 21 18 -5 22 -14 2 -23 9 -22 20 1 15 0 16 -22 1 -27 -17 -29
-24 -12 -41 9 -9 9 -12 -1 -12 -7 0 -9 -5 -5 -11 4 -7 1 -10 -7 -7 -8 3 -16
13 -18 24 -2 10 -7 21 -12 24 -5 3 -10 16 -11 29 -2 19 4 26 30 35 18 6 30 15
25 20 -4 4 4 5 19 1 24 -6 29 -3 38 19 5 14 12 26 15 26 4 0 3 -5 0 -10 -13
-21 11 -8 28 16 20 27 29 164 13 197 -5 11 -4 17 3 17 5 0 19 -30 31 -67 11
-37 32 -83 47 -102 18 -25 20 -30 7 -18 -28 23 -37 21 -30 -7 5 -20 0 -25 -32
-38 l-37 -14 32 -19 c18 -10 35 -25 37 -32 3 -8 -13 -3 -39 13 -25 14 -50 23
-57 21 -9 -4 -8 -6 2 -6 8 -1 26 -10 38 -20 22 -16 23 -19 7 -34 -10 -10 -15
-28 -13 -44 l4 -28 14 28 c20 40 30 33 23 -18 -6 -50 7 -60 26 -18 9 21 14 23
24 14 9 -10 7 -16 -10 -28 -13 -9 -23 -22 -23 -30 0 -29 -31 -73 -64 -88 -29
-14 -38 -14 -58 -4 -36 20 -45 19 -57 -7 -8 -18 -8 -30 2 -44 8 -14 9 -24 2
-34 -6 -7 -31 -44 -57 -82 -41 -60 -47 -73 -39 -99 l8 -30 22 45 c27 52 93
152 98 147 4 -4 -31 -98 -52 -140 -12 -23 -12 -27 0 -27 10 0 15 -11 15 -32 0
-18 4 -39 9 -46 13 -21 59 5 63 37 3 20 6 14 12 -21 9 -51 36 -69 36 -24 0 29
29 37 110 29 30 -3 94 -6 142 -6 47 -1 84 -5 81 -9 -11 -19 16 -6 28 13 13 19
23 20 199 20 102 0 194 -2 205 -5 11 -2 91 -5 179 -5 l159 -1 -8 -37 c-11 -57
-11 -92 0 -93 14 -1 38 124 25 128 -5 2 -10 10 -10 19 0 12 9 14 48 9 26 -4
101 -11 167 -16 66 -5 162 -14 214 -20 52 -6 103 -9 115 -6 36 8 259 -18 264
-32 2 -7 -5 -12 -16 -12 -18 0 -20 -4 -11 -32 5 -17 14 -35 21 -40 10 -6 10
-8 1 -8 -8 0 -13 -13 -13 -30 0 -20 5 -30 15 -30 21 0 19 -33 -3 -53 -22 -20
-33 -22 -29 -4 2 13 -162 24 -420 27 -68 2 -121 6 -118 10 3 4 -32 8 -78 9
-115 1 -197 12 -199 25 0 6 -2 17 -2 23 -1 7 -5 13 -9 13 -42 0 -49 -1 -44
-13 4 -11 -93 -19 -238 -19 -43 0 -34 -7 35 -26 30 -8 27 -9 -22 -4 -38 3 -58
1 -58 -6 0 -6 14 -10 30 -10 17 1 33 -2 37 -5 3 -4 -54 -8 -128 -8 -222 -2
-279 -6 -279 -18 0 -4 59 -8 130 -7 72 0 130 -2 130 -6 0 -5 -58 -8 -130 -8
l-130 0 0 -117 c0 -65 4 -123 8 -128 4 -6 42 -39 85 -74 42 -35 75 -66 73 -69
-3 -2 -23 10 -45 27 -35 28 -45 31 -78 25 -21 -4 -41 -12 -45 -18 -9 -14 -89
-16 -158 -4 -94 17 -123 16 -149 -4 -17 -13 -27 -15 -31 -7 -6 8 -9 8 -15 -1
-4 -6 -13 -9 -21 -6 -7 3 -16 1 -19 -3 -2 -5 -42 -12 -88 -16 -46 -3 -88 -10
-93 -13 -14 -9 -27 -45 -14 -37 6 4 23 -5 39 -18 22 -18 27 -27 18 -36 -17
-17 -44 -13 -59 7 -15 22 -57 46 -65 38 -3 -3 16 -31 43 -62 27 -31 56 -64 64
-75 9 -11 35 -21 68 -25 29 -4 55 -10 58 -15 2 -4 11 -6 19 -2 8 3 15 1 15 -5
0 -5 11 -7 25 -4 26 4 34 -11 13 -24 -7 -4 -8 -3 -4 4 11 18 -3 14 -26 -7
l-20 -20 21 6 c11 3 21 1 21 -5 0 -12 48 -13 56 0 4 6 10 5 16 -3 8 -11 9 -11
5 1 -2 8 -13 16 -25 18 -12 2 -22 7 -22 12 0 13 23 18 52 9 16 -4 28 -4 28 1
0 4 11 7 25 6 14 0 25 -4 25 -8 0 -4 6 -5 14 -2 8 3 17 1 21 -5 4 -7 -13 -11
-49 -11 -31 0 -56 -3 -56 -7 0 -13 14 -28 30 -32 26 -6 136 -11 115 -5 -33 10
-39 22 -8 17 l28 -4 -22 17 c-33 24 -29 30 17 28 23 -1 40 3 40 9 0 8 3 8 10
1 8 -8 21 -2 44 20 17 17 71 55 119 85 48 30 87 57 87 60 0 7 60 35 64 30 2
-2 11 -18 20 -36 18 -36 21 -63 6 -63 -5 0 -60 -34 -122 -76 -62 -42 -129 -85
-148 -96 l-35 -19 50 6 c77 11 146 36 196 72 26 18 51 33 58 33 6 0 11 4 11 9
0 5 15 16 34 25 18 8 39 22 45 30 7 8 29 20 49 27 36 12 36 12 12 22 -48 19
100 35 310 35 107 0 185 -3 172 -5 -22 -4 -23 -5 -5 -18 16 -13 13 -15 -32
-17 -27 -1 4 -4 70 -8 76 -3 124 -1 130 5 11 11 183 14 200 3 6 -3 16 0 23 8
11 12 8 14 -18 14 -16 0 -30 5 -30 10 0 7 13 9 33 5 68 -12 167 -21 167 -15 0
3 19 7 43 8 41 2 42 2 17 -13 l-25 -14 38 -1 c31 0 37 3 35 17 -2 12 2 17 12
14 8 -2 47 -4 87 -5 62 -1 96 -9 82 -19 -2 -2 -41 -1 -87 2 -81 6 -117 -4 -44
-12 20 -2 -32 -4 -116 -3 -117 1 -151 4 -147 14 6 17 -13 15 -31 -3 -13 -13
-12 -15 8 -19 13 -3 150 -8 306 -11 l282 -6 0 1930 0 1931 -2207 0 -2208 0 45
-32z m3710 -1093 c0 -41 -4 -77 -10 -80 -21 -13 -9 -22 25 -18 40 4 69 -12 96
-54 25 -37 24 -53 -2 -53 -18 0 -20 -2 -8 -16 11 -13 9 -14 -17 -8 -16 4 -40
15 -53 26 -17 13 -27 15 -36 8 -8 -7 -24 -5 -50 6 -41 17 -55 12 -39 -14 7
-11 27 -18 53 -20 36 -3 41 -6 36 -23 -4 -13 -2 -19 8 -19 9 0 17 -6 20 -12 3
-9 9 -7 20 6 20 27 59 31 74 8 9 -15 8 -19 -3 -19 -8 0 -14 5 -15 11 0 6 -9
-16 -19 -48 -13 -42 -16 -65 -9 -78 20 -38 -36 -92 -65 -62 -20 19 -20 38 -1
54 22 18 18 30 -10 30 -14 0 -37 11 -50 25 -28 27 -33 50 -10 42 22 -9 30 14
10 29 -14 10 -22 11 -32 3 -10 -9 -13 -7 -13 9 0 12 -5 24 -11 28 -6 3 -9 24
-7 45 3 34 1 39 -17 39 -11 0 -25 4 -31 8 -14 9 -57 92 -51 99 3 2 19 -3 36
-11 16 -9 41 -16 54 -16 14 0 31 -10 40 -22 l16 -23 0 25 c1 35 53 180 63 174
4 -3 8 -38 8 -79z m-993 32 c34 -19 168 -169 180 -202 6 -17 15 -39 19 -50 4
-11 6 -23 6 -27 -1 -5 4 -8 12 -8 31 0 60 -223 54 -410 -3 -74 -2 -115 1 -90
l6 44 46 -54 c25 -30 61 -78 81 -105 30 -42 45 -53 84 -63 25 -7 49 -11 51 -8
2 2 -7 26 -20 53 -32 62 -121 160 -186 204 -62 42 -70 71 -11 38 100 -56 192
-156 238 -258 22 -48 38 -68 81 -98 69 -48 101 -105 101 -179 0 -43 -5 -58
-26 -81 -19 -21 -24 -23 -18 -8 16 42 16 112 0 144 -18 34 -81 101 -96 101 -6
0 6 -21 25 -46 23 -30 35 -56 35 -77 0 -23 -3 -28 -9 -18 -7 11 -10 9 -14 -10
l-4 -24 -2 25 c-2 26 -29 83 -32 65 -2 -23 -10 -112 -12 -138 -1 -18 -15 -39
-38 -60 -46 -41 -173 -185 -188 -214 -6 -12 -11 -30 -11 -40 0 -31 58 -82 113
-98 68 -20 103 -19 127 5 21 21 35 11 25 -19 -19 -62 -192 -48 -249 20 -46 55
-51 93 -28 220 37 196 44 277 33 362 -10 81 -20 101 -75 139 -23 17 -30 18
-37 7 -11 -18 -11 -4 0 44 5 20 5 39 1 42 -4 2 -10 -19 -14 -48 -11 -84 -47
-221 -63 -237 -13 -13 -14 -12 -9 10 44 190 73 518 59 655 l-10 100 -2 -80
c-4 -191 -44 -489 -76 -560 -15 -35 -74 -201 -105 -300 -30 -92 -113 -255
-152 -299 -10 -11 -18 -25 -18 -31 0 -21 -99 -123 -140 -144 -67 -35 -95 -27
-106 31 -2 9 -15 42 -28 73 -14 31 -22 63 -19 73 7 16 5 16 -20 -1 -14 -9 -28
-17 -30 -17 -3 0 30 35 72 78 43 42 96 109 119 147 l42 70 -25 3 c-14 2 -25 7
-25 12 0 10 60 32 61 22 0 -4 13 20 28 52 l28 59 -28 26 c-22 20 -29 38 -33
81 -5 40 -3 49 4 33 5 -13 18 -23 29 -23 22 0 31 -18 32 -68 0 -32 5 -25 35
58 20 52 49 148 66 213 l30 119 -33 35 -34 36 33 -22 c18 -13 35 -22 37 -20 2
2 6 25 10 50 l7 45 -46 24 c-55 30 -54 35 4 15 52 -18 50 -18 50 0 0 9 -9 15
-24 15 -43 0 -176 54 -176 72 0 10 -11 13 102 -25 113 -39 102 -48 113 98 8
110 -9 280 -36 355 -33 89 -34 100 -13 100 11 -1 29 -6 41 -13z m-1869 -101
c20 -19 34 -38 30 -42 -4 -4 -14 -2 -22 5 -11 9 -15 9 -18 0 -3 -8 -13 -7 -35
5 -40 20 -48 33 -33 51 19 23 37 18 78 -19z m-88 -26 c0 -5 -6 -10 -12 -10 -7
-1 0 -7 17 -14 29 -12 24 -27 -8 -22 -24 3 -30 12 -22 35 6 21 25 29 25 11z
m1480 -35 c12 -37 24 -44 34 -20 9 23 21 18 22 -11 2 -20 -2 -25 -16 -21 -13
3 -17 0 -13 -9 3 -8 14 -14 24 -14 10 0 19 -6 19 -14 0 -8 16 -20 35 -26 42
-14 47 -29 8 -22 l-28 5 25 -28 c27 -30 10 -25 -27 8 -12 10 -19 25 -17 32 3
7 -2 15 -10 18 -9 4 -16 1 -16 -5 0 -8 -5 -7 -14 2 -17 17 -56 113 -56 136 0
25 18 6 30 -31z m-1530 5 c0 -5 -7 -7 -15 -4 -8 4 -15 8 -15 10 0 2 7 4 15 4
8 0 15 -4 15 -10z m310 -77 c32 -50 50 -88 50 -108 l0 -30 -21 34 c-11 19 -25
46 -31 60 -6 14 -12 21 -15 14 -2 -7 0 -21 6 -32 15 -27 15 -49 0 -34 -13 13
-59 184 -48 177 5 -3 31 -39 59 -81z m-375 -6 c6 -31 20 -55 60 -96 46 -48 55
-53 69 -42 9 7 16 17 16 22 0 11 -27 12 -33 2 -2 -5 -3 -3 -1 2 1 6 -4 19 -12
30 -15 21 -19 59 -5 51 5 -3 14 1 21 9 10 12 16 13 26 4 11 -9 14 -8 14 5 0
18 15 21 26 5 3 -6 17 -8 32 -4 22 5 24 4 13 -9 -7 -8 -10 -19 -7 -24 3 -5 -1
-17 -8 -27 -10 -14 -11 -26 -4 -47 11 -30 15 -33 37 -19 9 6 10 11 2 15 -18
11 -13 44 9 56 12 7 20 21 20 38 0 25 3 23 30 -20 17 -27 30 -61 30 -77 0 -16
4 -41 10 -55 9 -24 8 -25 -10 -14 -10 7 -20 10 -22 8 -2 -3 -14 -18 -28 -34
-25 -29 -13 -28 25 3 11 10 9 3 -7 -17 -15 -18 -25 -39 -22 -47 4 -8 3 -22 0
-30 -5 -14 -9 -14 -32 2 -24 15 -25 17 -8 24 11 4 13 8 5 8 -11 1 -11 4 -1 16
10 13 9 15 -11 15 -13 0 -36 -7 -51 -14 -16 -8 -28 -11 -28 -5 0 5 -6 9 -13 9
-17 0 -74 56 -82 81 -11 33 -43 22 -72 -23 -76 -121 -93 -146 -108 -158 -8 -7
-18 -11 -21 -8 -10 11 -6 154 6 183 12 30 12 30 21 7 9 -25 3 -69 -13 -89 -5
-6 -8 -24 -6 -40 4 -26 6 -23 31 30 22 47 28 78 32 155 6 113 9 133 26 160 18
29 36 12 44 -41z m189 47 c9 -22 8 -24 -9 -24 -8 0 -15 9 -15 20 0 24 15 27
24 4z m1152 2 c8 -8 14 -22 14 -31 0 -9 5 -13 10 -10 13 8 13 -36 -1 -55 -9
-13 -10 -13 -6 1 4 12 1 15 -12 12 -11 -3 -21 2 -24 11 -4 9 -1 16 5 16 7 0 7
4 1 13 -10 13 -15 57 -7 57 3 0 12 -6 20 -14z m-1241 -17 c4 -11 4 -23 0 -27
-7 -7 -25 17 -25 36 0 20 18 14 25 -9z m375 -21 c0 -23 18 -43 48 -52 12 -4
22 -11 22 -16 0 -14 33 -21 42 -8 4 8 8 -4 8 -30 0 -35 -4 -44 -22 -52 -13 -5
-18 -9 -13 -10 6 0 3 -5 -5 -10 -12 -8 -10 -10 8 -10 13 0 20 -4 17 -10 -3 -5
-1 -18 4 -29 9 -16 7 -19 -19 -23 -31 -5 -60 17 -74 56 -3 10 -9 17 -12 14 -2
-3 9 -41 25 -85 27 -73 28 -80 11 -76 -10 3 -23 17 -29 31 -18 46 -41 147 -39
172 2 33 -12 82 -29 98 -15 16 -9 32 13 32 8 0 14 9 14 20 0 13 5 18 15 14 8
-4 15 -15 15 -26z m969 -24 c-28 -30 -39 -30 -39 -2 0 12 3 19 6 16 3 -4 15 3
27 15 30 30 36 3 6 -29z m1434 -54 c14 42 16 41 11 -2 -6 -45 -5 -46 17 -41
28 7 29 8 -33 -45 -32 -27 -54 -39 -67 -35 -10 3 -28 0 -40 -6 -33 -18 -25 5
10 31 17 13 35 22 40 21 13 -4 11 25 -2 33 -8 5 -8 9 1 14 9 6 9 13 0 31 l-11
24 20 -24 21 -23 1 33 1 34 13 -30 c9 -21 15 -25 18 -15z m-1556 4 c2 -5 -7
-10 -19 -11 -13 -1 -33 -5 -45 -8 -13 -3 -23 -1 -23 4 0 12 37 24 50 16 5 -3
10 -1 10 5 0 14 22 8 27 -6z m205 1 c-2 -5 -13 -9 -25 -7 -18 2 -12 -7 28 -45
28 -27 55 -47 62 -45 8 3 10 -14 6 -58 -5 -67 -21 -113 -51 -148 -12 -13 -18
-31 -15 -42 4 -16 0 -20 -20 -20 -14 0 -28 -4 -31 -9 -9 -15 -98 -6 -110 12
-20 26 -32 7 -50 -75 -10 -43 -22 -78 -27 -78 -12 0 -12 3 11 89 22 83 25 110
11 96 -5 -6 -21 -57 -36 -115 -14 -58 -28 -113 -32 -124 -3 -11 -1 -16 5 -12
15 9 33 -19 25 -39 -6 -17 -7 -16 -14 3 -11 30 -31 28 -23 -2 3 -14 1 -33 -6
-43 -10 -15 -10 -14 -5 11 4 18 2 32 -6 37 -9 5 -8 17 5 49 9 23 12 39 7 36
-5 -4 -17 -26 -27 -51 -9 -25 -21 -45 -26 -45 -5 0 -7 -4 -4 -8 2 -4 -3 -8
-12 -9 -9 0 -60 -17 -112 -37 -57 -21 -103 -33 -115 -29 -14 4 16 16 94 39 62
17 119 38 127 46 33 33 104 177 124 251 21 76 21 82 5 93 -10 7 -14 18 -9 25
4 7 3 10 -3 6 -17 -11 -24 40 -12 86 14 55 54 123 83 142 39 26 185 42 178 20z
m126 -30 c-3 -3 -9 2 -12 12 -6 14 -5 15 5 6 7 -7 10 -15 7 -18z m261 -18 c29
-18 73 -55 97 -83 37 -43 42 -53 30 -63 -12 -10 -18 -6 -32 18 -22 38 -109 99
-154 107 -43 9 -79 42 -59 55 20 13 56 2 118 -34z m-1497 -94 c1 -12 -1 -23
-7 -25 -5 -2 -11 13 -13 32 -4 38 14 32 20 -7z m2550 -50 c7 -9 5 -17 -6 -28
-14 -15 -16 -12 -22 26 -7 41 -7 41 -24 20 l-16 -22 -12 27 c-15 32 -16 30 28
41 34 9 35 9 38 -21 2 -17 8 -36 14 -43z m-157 17 c3 -5 -1 -10 -9 -10 -9 0
-16 5 -16 10 0 6 4 10 9 10 6 0 13 -4 16 -10z m-2426 -80 c0 -19 -6 -53 -13
-75 l-12 -40 -7 81 c-4 45 -4 89 -1 99 6 15 9 15 20 -6 7 -13 13 -40 13 -59z
m-265 54 c26 -10 18 -24 -14 -24 -29 0 -38 9 -23 23 8 9 17 9 37 1z m1766 -46
c0 -15 -17 -8 -41 19 l-24 26 33 -19 c17 -10 32 -22 32 -26z m1190 33 c0 -5
-7 -11 -15 -15 -9 -3 -15 0 -15 9 0 8 7 15 15 15 8 0 15 -4 15 -9z m175 -78
l-4 -75 24 6 c26 7 55 -1 55 -15 0 -5 -10 -8 -21 -6 -12 1 -24 -3 -26 -9 -4
-13 44 -7 53 7 9 16 19 10 21 -13 1 -13 4 -35 8 -51 7 -27 7 -27 -21 -12 -16
8 -37 12 -46 9 -14 -4 -16 -1 -11 12 5 14 2 16 -21 10 -31 -8 -66 0 -66 15 0
5 6 9 14 9 8 0 18 5 21 10 4 7 -2 9 -19 4 -14 -3 -26 -4 -26 -2 0 2 11 28 25
56 14 29 25 54 25 57 0 2 -16 -7 -36 -20 -20 -14 -48 -25 -62 -25 l-25 0 21
23 c23 25 28 37 13 37 -11 0 -55 -84 -65 -122 -3 -15 -2 -38 4 -52 5 -14 6
-26 1 -26 -12 0 -31 48 -31 81 0 17 -5 39 -11 50 -12 24 3 49 31 49 10 0 20 5
22 11 2 6 21 12 42 14 20 2 52 15 69 28 18 14 35 23 40 20 4 -2 5 -38 2 -80z
m-2659 40 c45 -58 123 -247 109 -261 -3 -3 -12 3 -20 14 -16 21 -115 241 -115
255 0 14 12 10 26 -8z m1134 2 c4 3 6 -3 3 -14 -3 -10 0 -22 6 -25 7 -5 8 -1
4 10 -5 14 -3 15 15 5 27 -14 45 -49 67 -126 10 -33 24 -67 31 -76 20 -22 17
-31 -6 -19 -14 7 -20 7 -20 0 0 -5 -5 -10 -11 -10 -6 0 -8 7 -4 18 5 14 4 15
-6 5 -26 -26 -37 -11 -62 90 -27 108 -40 170 -31 149 3 -6 9 -10 14 -7z m1271
-14 l21 -19 -21 -21 c-24 -24 -43 -28 -35 -6 4 9 0 15 -10 15 -9 0 -16 8 -16
18 0 37 29 43 61 13z m-2983 -72 c-4 -42 -2 -53 13 -62 11 -7 19 -16 19 -20 0
-14 -149 -184 -186 -212 l-35 -27 5 34 c25 149 25 148 72 201 25 28 59 70 76
94 17 24 33 43 36 43 2 0 2 -23 0 -51z m1123 -2 c-22 -29 -48 -71 -57 -92 -12
-27 -19 -34 -21 -23 -6 24 22 73 69 124 22 24 42 44 45 44 2 0 -14 -24 -36
-53z m1789 43 c0 -6 -21 -33 -47 -61 -25 -27 -44 -52 -41 -55 8 -7 58 7 58 17
0 5 -7 6 -15 3 -26 -10 -16 14 14 35 37 27 49 27 26 1 -18 -20 -17 -20 13 -20
25 0 29 -3 25 -20 -3 -11 -14 -20 -24 -20 -11 0 -19 -6 -19 -13 0 -32 -46 -58
-121 -66 -41 -5 -93 -17 -117 -26 -24 -10 -45 -16 -47 -13 -3 2 0 31 5 64 7
46 16 64 37 81 41 34 108 63 158 70 25 3 53 12 62 19 22 16 33 17 33 4z
m-3113 -45 c-8 -6 -17 -22 -20 -35 -2 -14 -5 -4 -6 23 0 30 3 46 9 42 6 -3 10
0 10 7 0 7 5 5 12 -6 8 -15 7 -22 -5 -31z m633 -98 c0 -87 0 -88 -22 -82 -46
14 -48 24 -21 143 17 80 18 83 30 55 7 -15 12 -68 13 -116z m105 28 l6 -40
-16 34 c-17 37 -21 71 -6 56 5 -6 12 -28 16 -50z m-829 -32 c-18 -53 -19 -63
-7 -63 5 0 11 9 14 20 7 28 33 25 63 -7 23 -24 23 -28 9 -42 -15 -15 -17 -14
-30 3 -13 17 -14 15 -24 -20 -5 -22 -13 -54 -16 -73 l-7 -35 -14 25 c-7 13
-13 36 -14 52 0 34 -13 35 -29 1 -13 -30 -48 -190 -55 -254 -6 -59 -7 -59 -16
-30 -23 71 -3 245 34 305 7 11 16 32 20 47 3 15 23 56 43 90 42 70 56 60 29
-19z m1384 7 c-19 -38 -30 -49 -30 -32 0 10 39 72 45 72 3 0 -4 -18 -15 -40z
m425 20 c-4 -6 6 -7 24 -4 49 10 76 -14 87 -79 10 -55 10 -55 -15 -61 -14 -3
-36 -8 -48 -12 -17 -5 -23 -2 -23 9 0 21 -26 68 -33 60 -4 -3 -7 11 -7 32 l0
38 -33 -38 c-31 -36 -34 -37 -39 -17 -9 34 26 65 90 81 2 1 0 -3 -3 -9z m1473
-15 c-3 -3 -13 -2 -22 1 -14 5 -15 9 -4 15 13 8 36 -6 26 -16z m-2714 -40 c7
-29 7 -29 -8 -10 -8 11 -16 29 -16 40 0 27 16 7 24 -30z m-489 5 c3 -6 -1 -7
-9 -4 -18 7 -21 14 -7 14 6 0 13 -4 16 -10z m3542 -22 c-3 -8 -6 -5 -6 6 -1
11 2 17 5 13 3 -3 4 -12 1 -19z m-27 -8 c0 -5 -5 -10 -11 -10 -5 0 -7 5 -4 10
3 6 8 10 11 10 2 0 4 -4 4 -10z m-1864 -30 c42 0 63 -17 60 -47 -3 -28 -5 -28
-72 -28 -38 -1 -72 1 -77 3 -14 6 14 42 33 42 11 0 20 4 20 9 0 5 -9 7 -20 4
-15 -4 -20 0 -20 15 0 23 43 36 48 15 2 -7 15 -13 28 -13z m-1066 -30 c0 -5
-5 -10 -11 -10 -5 0 -7 5 -4 10 3 6 8 10 11 10 2 0 4 -4 4 -10z m20 -40 c-20
-13 -43 -13 -35 0 3 6 16 10 28 10 18 0 19 -2 7 -10z m2887 -22 c41 -15 42
-23 1 -37 -27 -10 -36 -9 -57 7 -14 10 -27 24 -29 30 -5 16 42 16 85 0z
m-2874 -18 c-4 -14 -14 -20 -32 -20 -40 0 -46 12 -14 26 41 18 52 17 46 -6z
m16 -65 c-38 -13 -49 -10 -49 10 0 19 20 24 54 12 l29 -10 -34 -12z m1189 -4
c-14 -23 -28 -28 -28 -10 0 12 32 40 38 34 2 -2 -3 -12 -10 -24z m697 -28 c-4
-27 -10 -52 -14 -56 -4 -4 -3 17 2 48 13 67 22 73 12 8z m-979 -61 c-13 -93
-26 -131 -26 -76 0 31 17 137 26 163 11 34 12 -2 0 -87z m-1457 27 c28 -13 51
-27 51 -30 0 -4 11 -10 25 -13 34 -9 22 -26 -16 -26 -19 0 -28 -4 -23 -11 3
-6 19 -9 35 -5 24 4 29 2 29 -14 0 -31 -131 -170 -160 -170 -6 0 -10 -5 -10
-11 0 -5 -4 -7 -10 -4 -5 3 -10 1 -10 -5 0 -13 -57 -4 -78 13 -19 15 -5 109
24 168 13 26 24 54 24 62 0 8 9 26 20 39 10 14 17 28 13 31 -3 3 -3 14 1 23 6
16 8 16 21 -3 7 -11 37 -30 64 -44z m984 42 c-4 -13 7 -14 27 -1 12 8 12 10 1
10 -8 0 -12 3 -8 6 8 8 48 -6 42 -15 -2 -5 -18 -11 -34 -14 -29 -6 -30 -8 -20
-37 6 -16 14 -30 18 -30 4 0 7 -9 7 -19 0 -26 -12 -17 -37 27 -11 20 -18 29
-15 19 4 -11 9 -31 12 -45 l6 -27 -21 30 c-23 33 -28 100 -8 108 17 7 32 1 30
-12z m524 -18 c-3 -10 -5 -4 -5 12 0 17 2 24 5 18 2 -7 2 -21 0 -30z m283 2
c0 -16 -27 -32 -37 -22 -3 4 -3 13 0 22 8 20 37 20 37 0z m1474 -5 c-3 -8 -8
-31 -9 -50 -2 -19 -13 -62 -24 -94 -12 -33 -21 -63 -21 -67 0 -4 12 -22 27
-40 23 -27 29 -46 35 -108 4 -42 10 -88 14 -103 5 -24 3 -28 -15 -28 -14 0
-22 8 -27 28 -11 54 -25 86 -61 151 -30 55 -38 62 -44 46 -11 -29 0 -278 16
-360 25 -127 27 -145 15 -145 -32 0 -48 21 -54 72 -4 29 -21 98 -39 153 -28
88 -31 112 -29 201 2 81 -2 112 -19 160 -12 32 -22 70 -24 84 -2 14 -6 39 -10
56 -5 22 -3 31 7 31 7 0 34 3 61 7 l47 7 1 -58 c0 -32 2 -69 3 -83 1 -14 3
-38 4 -53 4 -63 20 -11 26 90 4 59 9 110 11 113 2 3 29 6 59 6 46 -1 55 -4 50
-16z m-2714 1 c0 -12 -28 -22 -34 -12 -3 5 -3 11 1 15 9 9 33 7 33 -3z m246
-39 c-17 -34 -36 -50 -36 -32 0 15 41 73 47 67 2 -3 -3 -19 -11 -35z m-561
-57 c3 -16 1 -68 -6 -115 -6 -47 -13 -112 -15 -145 -8 -102 -9 -105 -54 -105
-34 0 -41 4 -46 26 -4 14 -3 46 0 72 4 26 11 72 15 102 6 37 3 81 -7 137 -19
109 -11 121 58 84 39 -20 51 -33 55 -56z m1547 52 c3 -5 9 -34 13 -64 5 -38
12 -56 26 -63 13 -7 19 -21 19 -44 0 -29 3 -33 23 -29 l23 5 -28 56 c-27 52
-27 57 -11 63 22 8 29 -3 37 -64 l7 -47 42 5 c39 5 37 4 -18 -15 -65 -22 -102
-49 -139 -104 l-23 -35 -7 142 c-4 78 -9 159 -12 181 -6 37 -5 38 17 31 13 -4
27 -12 31 -18z m-1276 -6 c0 -12 -6 -17 -17 -14 -10 3 -15 11 -12 19 8 20 29
17 29 -5z m988 4 c3 -9 0 -15 -9 -15 -9 0 -12 6 -9 15 4 8 7 15 9 15 2 0 5 -7
9 -15z m-1789 -166 c17 -21 25 -47 30 -93 10 -91 -10 -113 -40 -44 l-12 31 0
-42 c0 -49 -7 -59 -28 -41 -40 34 -50 71 -49 190 1 63 7 129 14 145 l12 30 24
-74 c14 -41 35 -87 49 -102z m645 147 c6 -8 21 -16 32 -18 12 -2 28 -17 37
-35 9 -19 22 -31 29 -28 7 3 10 0 7 -6 -4 -6 -14 -8 -22 -4 -14 5 -15 -4 -11
-60 5 -57 10 -70 41 -104 46 -51 54 -77 31 -102 -21 -24 -46 -24 -66 -1 -23
25 -76 134 -87 179 -6 21 -18 65 -27 99 -10 33 -15 68 -11 77 8 21 30 22 47 3z
m1531 -18 c11 -21 11 -22 -4 -9 -10 7 -17 17 -17 22 0 15 9 10 21 -13z m-1391
-8 c0 -5 -4 -10 -10 -10 -5 0 -10 5 -10 10 0 6 5 10 10 10 6 0 10 -4 10 -10z
m2323 -126 c-5 -10 -14 -20 -21 -22 -9 -2 -7 5 5 22 21 28 27 28 16 0z m-2256
-106 c-3 -8 -6 -5 -6 6 -1 11 2 17 5 13 3 -3 4 -12 1 -19z m1341 -31 c4 -31
-12 -36 -28 -8 -15 29 -12 43 8 39 10 -2 18 -14 20 -31z m-1178 -46 c0 -13
-50 -71 -61 -71 -6 0 5 18 22 40 34 42 39 46 39 31z m956 -46 c-11 -8 -15 -19
-11 -27 6 -10 5 -10 -5 -1 -11 10 -11 15 0 28 7 8 18 15 24 15 6 0 3 -7 -8
-15z m-1911 -35 c-3 -5 -15 -10 -26 -10 -10 0 -19 5 -19 10 0 6 12 10 26 10
14 0 23 -4 19 -10z m1930 -20 c3 -5 -1 -10 -9 -10 -9 0 -16 5 -16 10 0 6 4 10
9 10 6 0 13 -4 16 -10z m-1038 -142 c-3 -7 -5 -2 -5 12 0 14 2 19 5 13 2 -7 2
-19 0 -25z m138 -94 c13 -5 7 -10 -21 -20 -42 -14 -49 -13 -41 11 7 16 33 20
62 9z m2775 -274 c0 -5 -14 -10 -31 -10 -17 0 -28 4 -24 10 3 6 17 10 31 10
13 0 24 -4 24 -10z m38 -66 c32 -9 27 -26 -5 -18 -32 8 -55 24 -32 24 7 0 24
-3 37 -6z m-1310 -91 c-10 -2 -26 -2 -35 0 -10 3 -2 5 17 5 19 0 27 -2 18 -5z
m-110 -160 c-10 -2 -28 -2 -40 0 -13 2 -5 4 17 4 22 1 32 -1 23 -4z m68 -104
c71 0 135 -6 141 -11 7 -6 22 -8 33 -5 11 3 18 2 15 -2 -2 -5 -55 -12 -117
-16 -204 -15 -224 -14 -260 8 l-33 21 40 6 c22 3 43 5 46 3 3 -1 64 -3 135 -4z
m89 -98 c-14 -14 -165 -24 -165 -12 0 10 41 16 130 19 28 1 40 -2 35 -7z m195
-49 c0 -10 -112 -32 -161 -32 -19 0 -41 4 -48 9 -20 13 12 20 104 24 39 2 78
4 88 5 9 1 17 -2 17 -6z m-385 -22 c3 -6 -1 -7 -9 -4 -18 7 -21 14 -7 14 6 0
13 -4 16 -10z m165 -14 c0 -9 -40 -13 -46 -5 -3 5 6 9 20 9 14 0 26 -2 26 -4z
m1018 -43 c-10 -2 -26 -2 -35 0 -10 3 -2 5 17 5 19 0 27 -2 18 -5z m-1478 -41
c0 -8 -1 -13 -3 -11 -1 2 -9 12 -16 22 -12 15 -12 17 3 11 9 -3 16 -13 16 -22z
m1768 1 c-10 -2 -26 -2 -35 0 -10 3 -2 5 17 5 19 0 27 -2 18 -5z m199 1 c-3
-3 -12 -4 -19 -1 -8 3 -5 6 6 6 11 1 17 -2 13 -5z m-124 -11 c-7 -2 -21 -2
-30 0 -10 3 -4 5 12 5 17 0 24 -2 18 -5z m-1779 -52 c-2 -2 -14 6 -28 17 -14
10 -22 22 -19 26 7 6 53 -36 47 -43z"/>
<path d="M3915 3140 c-3 -5 1 -10 9 -10 9 0 16 5 16 10 0 6 -4 10 -9 10 -6 0
-13 -4 -16 -10z"/>
<path d="M3410 2275 c0 -6 5 -16 12 -23 9 -9 6 -14 -13 -21 -20 -7 -16 -9 24
-8 35 0 44 3 31 10 -13 7 -14 11 -3 18 7 4 10 11 6 16 -5 4 -12 1 -17 -7 -8
-13 -12 -12 -24 5 -9 11 -16 15 -16 10z"/>
<path d="M3380 2180 c0 -5 5 -10 10 -10 6 0 10 5 10 10 0 6 -4 10 -10 10 -5 0
-10 -4 -10 -10z"/>
<path d="M1018 3188 c9 -9 15 -9 24 0 9 9 7 12 -12 12 -19 0 -21 -3 -12 -12z"/>
<path d="M995 3060 c3 -5 26 -10 51 -10 28 0 43 4 39 10 -3 6 -26 10 -51 10
-28 0 -43 -4 -39 -10z"/>
<path d="M2261 3064 c0 -11 3 -14 6 -6 3 7 2 16 -1 19 -3 4 -6 -2 -5 -13z"/>
<path d="M2331 3071 c-6 -4 -13 -22 -14 -39 -1 -18 -8 -34 -15 -37 -9 -3 -11
1 -7 14 3 11 1 22 -5 26 -6 4 -10 -4 -10 -19 0 -14 4 -27 10 -31 5 -3 7 -12 4
-19 -3 -8 0 -17 7 -22 8 -5 10 -3 4 7 -5 8 1 6 13 -5 18 -15 24 -16 37 -6 21
17 19 35 -7 54 -16 12 -18 16 -5 12 11 -4 17 0 17 10 0 8 4 13 9 10 11 -7 21
17 13 31 -10 14 -37 22 -51 14z m11 -23 c-7 -7 -12 -8 -12 -2 0 14 12 26 19
19 2 -3 -1 -11 -7 -17z"/>
<path d="M2210 2952 c0 -10 8 -18 19 -19 13 -1 18 3 15 12 -9 22 -34 27 -34 7z"/>
<path d="M1711 2464 c0 -11 3 -14 6 -6 3 7 2 16 -1 19 -3 4 -6 -2 -5 -13z"/>
<path d="M1736 2199 c-49 -38 -72 -119 -46 -159 7 -11 10 -7 10 18 0 43 25
100 57 135 31 32 17 36 -21 6z"/>
<path d="M1186 1648 c7 -10 51 -11 58 0 2 4 -11 8 -29 8 -19 0 -32 -3 -29 -8z"/>
<path d="M1375 1650 c3 -5 11 -10 16 -10 6 0 7 5 4 10 -3 6 -11 10 -16 10 -6
0 -7 -4 -4 -10z"/>
<path d="M1241 1611 c-19 -12 -3 -18 57 -20 29 -1 52 3 52 9 0 5 -17 9 -38 8
-22 0 -43 2 -48 5 -6 3 -16 2 -23 -2z"/>
<path d="M1386 1605 c-3 -8 -1 -15 4 -15 6 0 10 7 10 15 0 8 -2 15 -4 15 -2 0
-6 -7 -10 -15z"/>
<path d="M3508 1563 c7 -3 16 -2 19 1 4 3 -2 6 -13 5 -11 0 -14 -3 -6 -6z"/>
<path d="M3541 1556 c12 -10 99 -16 99 -7 0 7 -22 11 -52 11 -28 0 -49 -2 -47
-4z"/>
<path d="M3650 1548 c0 -5 11 -8 24 -8 13 0 31 -3 40 -6 9 -3 16 -2 16 4 0 5
-18 12 -40 14 -22 2 -40 0 -40 -4z"/>
<path d="M2626 1507 c3 -10 9 -15 12 -12 3 3 0 11 -7 18 -10 9 -11 8 -5 -6z"/>
<path d="M3598 1513 c7 -3 16 -2 19 1 4 3 -2 6 -13 5 -11 0 -14 -3 -6 -6z"/>
<path d="M666 1499 c-5 -14 -26 -116 -26 -124 0 -3 5 -5 10 -5 6 0 10 15 10
33 0 17 4 48 10 66 9 33 6 59 -4 30z"/>
<path d="M3935 1480 c27 -12 43 -12 25 0 -8 5 -22 9 -30 9 -10 0 -8 -3 5 -9z"/>
<path d="M3998 1473 c12 -2 30 -2 40 0 9 3 -1 5 -23 4 -22 0 -30 -2 -17 -4z"/>
<path d="M4088 1463 c12 -2 30 -2 40 0 9 3 -1 5 -23 4 -22 0 -30 -2 -17 -4z"/>
<path d="M2596 1310 c4 -85 8 -168 9 -185 2 -16 3 -38 4 -47 2 -28 30 -21 42
10 21 53 12 303 -10 310 -7 2 -22 18 -33 36 l-19 31 7 -155z"/>
<path d="M4030 1410 c0 -5 5 -10 11 -10 5 0 7 5 4 10 -3 6 -8 10 -11 10 -2 0
-4 -4 -4 -10z"/>
<path d="M2930 1380 c-12 -8 -9 -10 13 -10 16 0 26 4 22 10 -8 12 -16 12 -35
0z"/>
<path d="M2213 1323 c15 -2 37 -2 50 0 12 2 0 4 -28 4 -27 0 -38 -2 -22 -4z"/>
<path d="M2360 1320 c0 -5 5 -10 11 -10 5 0 7 5 4 10 -3 6 -8 10 -11 10 -2 0
-4 -4 -4 -10z"/>
<path d="M2519 1317 c5 -5 21 -7 37 -5 27 3 26 4 -8 9 -22 3 -34 1 -29 -4z"/>
<path d="M2460 1287 c0 -3 7 -13 16 -21 19 -19 21 -19 -168 -16 -86 1 -128 -2
-128 -9 0 -7 31 -11 85 -11 47 0 85 -4 85 -9 0 -5 -5 -11 -12 -13 -25 -9 4
-27 35 -22 65 10 142 4 167 -15 51 -35 50 -36 50 23 0 52 -1 55 -27 59 l-28 4
28 2 c15 0 27 6 27 11 0 6 -12 10 -27 10 -16 0 -45 3 -65 6 -21 4 -38 4 -38 1z
m-57 -74 c-7 -2 -21 -2 -30 0 -10 3 -4 5 12 5 17 0 24 -2 18 -5z"/>
<path d="M2428 1263 c6 -2 18 -2 25 0 6 3 1 5 -13 5 -14 0 -19 -2 -12 -5z"/>
<path d="M1843 1243 c9 -2 23 -2 30 0 6 3 -1 5 -18 5 -16 0 -22 -2 -12 -5z"/>
<path d="M2020 1241 c0 -4 13 -8 30 -7 39 1 39 16 0 16 -16 0 -30 -4 -30 -9z"/>
<path d="M2141 1183 c-17 -20 -28 -39 -26 -42 6 -6 75 60 75 71 0 18 -20 6
-49 -29z"/>
<path d="M2035 1200 c22 -10 22 -10 -67 -15 -69 -4 -115 -24 -55 -25 20 0 37
-3 37 -8 0 -16 -41 -42 -66 -42 -14 0 -23 -4 -20 -8 8 -14 -104 -36 -117 -23
-16 16 37 91 65 91 10 0 9 3 -2 10 -8 5 -51 10 -95 10 -44 0 -87 -5 -95 -10
-10 -7 13 -10 75 -11 60 0 83 -3 70 -9 -11 -5 -16 -9 -12 -9 5 -1 -1 -15 -14
-32 -14 -20 -25 -27 -31 -21 -6 6 -17 8 -24 5 -8 -3 -16 1 -19 8 -4 11 -31 14
-109 14 -57 0 -108 -3 -112 -7 -4 -5 33 -8 83 -8 85 0 91 -1 86 -19 -3 -11
-12 -22 -22 -24 -12 -4 -11 -5 4 -6 11 -1 33 -10 50 -21 16 -10 71 -29 122
-42 107 -25 106 -26 140 62 19 50 35 66 76 75 15 4 27 10 27 15 0 4 11 10 24
12 21 4 23 2 20 -26 -3 -25 -2 -27 5 -11 15 32 13 72 -5 79 -24 9 -42 6 -19
-4z"/>
<path d="M2285 1200 c27 -12 43 -12 25 0 -8 5 -22 9 -30 9 -10 0 -8 -3 5 -9z"/>
<path d="M2148 1088 c-21 -24 -52 -61 -70 -82 -32 -38 -33 -39 -39 -15 -7 24
-7 24 -8 2 -1 -14 -7 -23 -17 -23 -9 0 -25 -10 -35 -21 -17 -19 -17 -24 -3
-50 14 -28 16 -29 47 -15 71 30 86 39 80 49 -3 6 -1 7 5 3 10 -6 100 33 128
55 16 13 -1 78 -29 113 l-22 27 -37 -43z"/>
<path d="M1508 1063 c6 -2 18 -2 25 0 6 3 1 5 -13 5 -14 0 -19 -2 -12 -5z"/>
<path d="M2620 1022 c0 -9 39 -48 41 -41 0 2 2 14 5 27 3 18 -1 22 -21 22 -14
0 -25 -4 -25 -8z"/>
<path d="M3478 763 c6 -2 18 -2 25 0 6 3 1 5 -13 5 -14 0 -19 -2 -12 -5z"/>
<path d="M3818 753 c7 -3 16 -2 19 1 4 3 -2 6 -13 5 -11 0 -14 -3 -6 -6z"/>
<path d="M3868 753 c7 -3 16 -2 19 1 4 3 -2 6 -13 5 -11 0 -14 -3 -6 -6z"/>
<path d="M3950 720 c-12 -8 -10 -10 8 -10 13 0 20 4 17 10 -7 12 -6 12 -25 0z"/>
<path d="M4160 720 c0 -6 7 -10 15 -10 8 0 15 2 15 4 0 2 -7 6 -15 10 -8 3
-15 1 -15 -4z"/>
<path d="M3498 713 c7 -3 16 -2 19 1 4 3 -2 6 -13 5 -11 0 -14 -3 -6 -6z"/>
<path d="M3583 713 c9 -2 25 -2 35 0 9 3 1 5 -18 5 -19 0 -27 -2 -17 -5z"/>
<path d="M4033 713 c15 -2 39 -2 55 0 15 2 2 4 -28 4 -30 0 -43 -2 -27 -4z"/>
<path d="M4324 712 c3 -5 43 -10 88 -11 45 -1 80 0 77 3 -10 10 -171 18 -165
8z"/>
<path d="M4538 713 c7 -3 16 -2 19 1 4 3 -2 6 -13 5 -11 0 -14 -3 -6 -6z"/>
<path d="M3348 693 c12 -2 32 -2 45 0 12 2 2 4 -23 4 -25 0 -35 -2 -22 -4z"/>
<path d="M4408 683 c7 -3 16 -2 19 1 4 3 -2 6 -13 5 -11 0 -14 -3 -6 -6z"/>
<path d="M4188 593 c7 -3 16 -2 19 1 4 3 -2 6 -13 5 -11 0 -14 -3 -6 -6z"/>
<path d="M4008 563 c6 -2 18 -2 25 0 6 3 1 5 -13 5 -14 0 -19 -2 -12 -5z"/>
<path d="M4435 560 l-40 -7 40 -1 c22 0 49 3 60 8 l20 9 -20 -1 c-11 -1 -38
-4 -60 -8z"/>
<path d="M4343 553 c9 -2 25 -2 35 0 9 3 1 5 -18 5 -19 0 -27 -2 -17 -5z"/>
<path d="M4553 553 c9 -2 25 -2 35 0 9 3 1 5 -18 5 -19 0 -27 -2 -17 -5z"/>
<path d="M3633 533 c9 -2 23 -2 30 0 6 3 -1 5 -18 5 -16 0 -22 -2 -12 -5z"/>
<path d="M4263 533 c15 -2 37 -2 50 0 12 2 0 4 -28 4 -27 0 -38 -2 -22 -4z"/>
<path d="M4368 533 c7 -3 16 -2 19 1 4 3 -2 6 -13 5 -11 0 -14 -3 -6 -6z"/>
<path d="M3188 503 c7 -3 16 -2 19 1 4 3 -2 6 -13 5 -11 0 -14 -3 -6 -6z"/>
<path d="M4460 500 c-57 -7 -53 -7 37 -6 57 0 103 4 103 9 0 8 -43 7 -140 -3z"/>
<path d="M4188 493 c6 -2 18 -2 25 0 6 3 1 5 -13 5 -14 0 -19 -2 -12 -5z"/>
<path d="M4278 493 c7 -3 16 -2 19 1 4 3 -2 6 -13 5 -11 0 -14 -3 -6 -6z"/>
<path d="M3318 473 c6 -2 18 -2 25 0 6 3 1 5 -13 5 -14 0 -19 -2 -12 -5z"/>
<path d="M3368 473 c7 -3 16 -2 19 1 4 3 -2 6 -13 5 -11 0 -14 -3 -6 -6z"/>
<path d="M3518 473 c6 -2 18 -2 25 0 6 3 1 5 -13 5 -14 0 -19 -2 -12 -5z"/>
<path d="M4590 459 c0 -7 -10 -9 -25 -5 -14 4 -25 2 -25 -4 0 -5 14 -10 30
-10 20 0 30 5 30 15 0 8 -2 15 -5 15 -3 0 -5 -5 -5 -11z"/>
<path d="M3718 453 c12 -2 30 -2 40 0 9 3 -1 5 -23 4 -22 0 -30 -2 -17 -4z"/>
<path d="M3508 443 c6 -2 18 -2 25 0 6 3 1 5 -13 5 -14 0 -19 -2 -12 -5z"/>
<path d="M4094 442 c9 -9 95 -9 108 0 8 5 -12 8 -50 7 -34 -1 -60 -4 -58 -7z"/>
<path d="M4368 423 c7 -3 16 -2 19 1 4 3 -2 6 -13 5 -11 0 -14 -3 -6 -6z"/>
<path d="M4508 423 c6 -2 18 -2 25 0 6 3 1 5 -13 5 -14 0 -19 -2 -12 -5z"/>
<path d="M3838 413 c7 -3 16 -2 19 1 4 3 -2 6 -13 5 -11 0 -14 -3 -6 -6z"/>
<path d="M3228 383 c6 -2 18 -2 25 0 6 3 1 5 -13 5 -14 0 -19 -2 -12 -5z"/>
<path d="M3508 253 c12 -2 30 -2 40 0 9 3 -1 5 -23 4 -22 0 -30 -2 -17 -4z"/>
<path d="M3578 243 c6 -2 18 -2 25 0 6 3 1 5 -13 5 -14 0 -19 -2 -12 -5z"/>
<path d="M4160 236 c0 -2 13 -6 29 -8 17 -2 28 -1 25 4 -5 8 -54 12 -54 4z"/>
<path d="M4238 223 c7 -3 16 -2 19 1 4 3 -2 6 -13 5 -11 0 -14 -3 -6 -6z"/>
<path d="M3303 213 c15 -2 39 -2 55 0 15 2 2 4 -28 4 -30 0 -43 -2 -27 -4z"/>
<path d="M3678 213 c7 -3 16 -2 19 1 4 3 -2 6 -13 5 -11 0 -14 -3 -6 -6z"/>
<path d="M4580 200 c0 -5 5 -10 11 -10 5 0 7 5 4 10 -3 6 -8 10 -11 10 -2 0
-4 -4 -4 -10z"/>
<path d="M4168 193 c7 -3 16 -2 19 1 4 3 -2 6 -13 5 -11 0 -14 -3 -6 -6z"/>
<path d="M2803 173 c9 -2 23 -2 30 0 6 3 -1 5 -18 5 -16 0 -22 -2 -12 -5z"/>
<path d="M3668 173 c7 -3 16 -2 19 1 4 3 -2 6 -13 5 -11 0 -14 -3 -6 -6z"/>
<path d="M4068 163 c6 -2 18 -2 25 0 6 3 1 5 -13 5 -14 0 -19 -2 -12 -5z"/>
<path d="M4118 163 c6 -2 18 -2 25 0 6 3 1 5 -13 5 -14 0 -19 -2 -12 -5z"/>
<path d="M4570 150 c20 -13 33 -13 25 0 -3 6 -14 10 -23 10 -15 0 -15 -2 -2
-10z"/>
<path d="M2668 113 c7 -3 16 -2 19 1 4 3 -2 6 -13 5 -11 0 -14 -3 -6 -6z"/>
<path d="M4170 108 c0 -4 24 -7 53 -7 54 1 49 5 -15 11 -21 2 -38 0 -38 -4z"/>
<path d="M2829 97 c5 -5 21 -7 37 -5 27 3 26 4 -8 9 -22 3 -34 1 -29 -4z"/>
<path d="M4310 99 c-18 -5 -8 -7 36 -8 34 -1 90 -4 125 -7 43 -4 59 -2 50 4
-7 5 -50 10 -93 11 -44 1 -83 3 -87 5 -3 1 -17 0 -31 -5z"/>
<path d="M3263 93 c9 -2 23 -2 30 0 6 3 -1 5 -18 5 -16 0 -22 -2 -12 -5z"/>
<path d="M3858 93 c6 -2 18 -2 25 0 6 3 1 5 -13 5 -14 0 -19 -2 -12 -5z"/>
<path d="M4553 93 c9 -2 25 -2 35 0 9 3 1 5 -18 5 -19 0 -27 -2 -17 -5z"/>
<path d="M2948 83 c12 -2 30 -2 40 0 9 3 -1 5 -23 4 -22 0 -30 -2 -17 -4z"/>
<path d="M3348 83 c6 -2 18 -2 25 0 6 3 1 5 -13 5 -14 0 -19 -2 -12 -5z"/>
<path d="M3927 83 c18 -2 50 -2 70 0 21 2 7 4 -32 4 -38 0 -55 -2 -38 -4z"/>
<path d="M4188 73 c6 -2 18 -2 25 0 6 3 1 5 -13 5 -14 0 -19 -2 -12 -5z"/>
<path d="M3543 63 c9 -2 25 -2 35 0 9 3 1 5 -18 5 -19 0 -27 -2 -17 -5z"/>
<path d="M3678 53 c7 -3 16 -2 19 1 4 3 -2 6 -13 5 -11 0 -14 -3 -6 -6z"/>
<path d="M4268 53 c7 -3 16 -2 19 1 4 3 -2 6 -13 5 -11 0 -14 -3 -6 -6z"/>
<path d="M4528 33 c6 -2 18 -2 25 0 6 3 1 5 -13 5 -14 0 -19 -2 -12 -5z"/>
<path d="M3558 23 c7 -3 16 -2 19 1 4 3 -2 6 -13 5 -11 0 -14 -3 -6 -6z"/>
<path d="M4012 8 c7 -4 51 -7 98 -7 47 0 81 2 75 4 -22 8 -184 11 -173 3z"/>
<path d="M3513 3 c15 -2 37 -2 50 0 12 2 0 4 -28 4 -27 0 -38 -2 -22 -4z"/>
</g>
</svg>
